<svg width="169" height="202" viewBox="0 0 169 202" fill="none" xmlns="http://www.w3.org/2000/svg">
<path d="M84.3716 0C37.7749 0 0 45.2165 0 100.998C0 156.779 37.7749 202 84.3716 202C130.968 202 168.739 156.779 168.739 100.998C168.739 45.2165 130.968 0 84.3716 0ZM123.494 116.847L125.058 119.652C120.509 124.385 116.674 127.738 113.554 129.7C110.439 131.668 108.246 132.532 106.994 132.302C105.954 132.106 105.638 130.886 106.054 128.637C107.089 123.035 111.743 114.963 120.006 104.424C127.03 95.279 130.648 90.129 130.86 88.974C131.042 87.9839 130.786 87.4194 130.097 87.2891C128.884 87.0677 125.219 89.799 119.105 95.4831C112.987 101.172 105.222 109.37 95.8063 120.074C85.1819 131.963 77.8245 140.508 73.7255 145.702C79.3627 147.452 83.9383 149.206 87.4437 150.969C90.9491 152.728 96.0013 155.468 102.6 159.18C109.195 162.893 114.122 165.268 117.385 166.306C112.276 171.152 108.766 174.444 106.855 176.172C104.945 177.9 103.536 178.899 102.639 179.164C101.214 179.602 99.2771 179.285 96.8333 178.208C94.3851 177.132 90.5505 175.217 85.3206 172.459C80.095 169.706 75.1727 167.301 70.5538 165.255C65.9305 163.206 61.6322 161.812 57.6459 161.074C55.3884 160.652 53.3952 160.609 51.6534 160.935C49.9115 161.265 47.4677 161.877 44.3176 162.785C41.1719 163.688 39.0141 164.031 37.8442 163.814C36.1543 163.501 35.461 162.507 35.773 160.831C35.9463 159.888 36.4273 158.872 37.2116 157.769C39.1527 155.259 41.0289 152.875 42.8358 150.609C44.6426 148.346 46.4365 146.649 48.213 145.52C49.9938 144.386 52.3856 143.691 55.3884 143.435C58.3955 143.183 62.2432 143.466 66.9314 144.278C73.0366 136.696 78.8298 129.692 84.311 123.261C82.6688 124.151 80.9529 124.894 79.1504 125.475C76.3513 126.309 72.9066 126.943 68.8163 127.377C64.7259 127.807 60.3583 127.933 55.709 127.746C51.0598 127.56 46.6748 127.086 42.5585 126.322C34.9757 124.915 29.0352 122.922 24.7413 120.338C20.443 117.755 18.6188 114.706 19.2687 111.202C19.559 109.63 20.7896 107.329 22.9648 104.294C25.1399 101.258 27.3931 99.3608 29.7285 98.6052C31.7564 98.0581 33.6499 97.8844 35.4091 98.0754C37.1639 98.2665 37.9872 98.6747 37.8702 99.3C37.8398 99.4606 37.7445 99.6039 37.5885 99.7385C37.4282 99.8688 37.2506 99.973 37.0599 100.047C36.8649 100.116 36.6743 100.19 36.4836 100.264C35.539 100.52 34.7721 100.716 34.1871 100.855C33.6022 100.989 33.1256 101.141 32.7573 101.319C32.389 101.493 32.168 101.792 32.09 102.209C31.8863 103.308 36.267 104.689 45.2406 106.352C53.0399 107.802 59.4917 108.645 64.6003 108.892C69.7089 109.135 74.3365 108.718 78.4788 107.646C80.3593 107.16 82.1921 106.521 83.9817 105.727C87.8207 104.024 89.2419 98.2578 86.6248 94.8448C86.6074 94.8187 86.5901 94.797 86.5728 94.7753C84.7616 92.4348 82.6124 90.4243 80.121 88.7438C77.6295 87.0633 74.9648 85.6651 72.1267 84.5404C63.66 81.3488 56.125 76.403 49.5215 69.7115C48.9496 69.1687 48.4166 68.1526 47.9313 66.6545C47.446 65.1564 47.3204 63.7799 47.5544 62.5206C48.4036 57.9177 49.8985 53.4148 52.0303 49.0203C54.1665 44.6216 56.4716 41.3041 58.9458 39.0547C62.9581 35.303 69.4315 32.5804 78.3748 30.8825C87.3137 29.1847 97.0066 29.3019 107.449 31.2386C113.689 32.398 118.403 33.87 121.592 35.6504C124.781 37.4351 126.154 39.5281 125.708 41.938C124.985 45.8635 123.979 48.8163 122.692 50.7964C121.41 52.7808 120.192 54.0314 119.044 54.5481C117.896 55.0648 115.929 55.6901 113.151 56.4196C110.209 57.0623 107.614 57.8265 105.369 58.7124C103.12 59.5939 101.175 60.4797 99.5327 61.3655C97.8905 62.2514 96.8939 62.6595 96.5473 62.5988C96.114 62.5162 95.9363 62.2687 96.0143 61.8475C96.179 60.9574 97.1972 59.7545 99.0691 58.2304C100.941 56.7106 103.129 55.4817 105.634 54.5351C108.298 53.4625 109.668 52.7157 109.746 52.2944C109.871 51.617 108.61 51.0265 105.967 50.5402C97.9512 49.0507 90.3815 48.5384 83.2624 49.0073C76.139 49.472 70.3545 50.7529 65.9132 52.8546C61.4675 54.9519 58.9761 57.4661 58.4345 60.3972C58.0965 62.2297 58.6684 63.68 60.1547 64.7395C61.6365 65.799 64.9902 67.7357 70.2071 70.5408C75.424 73.3503 80.0083 76.3118 83.96 79.4295C89.6449 83.8413 93.6789 88.0794 96.0663 92.1482C98.4495 96.2213 99.2424 100.429 98.4365 104.771C98.2241 105.939 97.9122 107.09 97.5135 108.223C103.744 101.363 109.416 95.4787 114.529 90.5763C120.821 84.5448 126.185 80.0809 130.617 77.1932C135.05 74.31 138.369 73.0724 140.579 73.4806C142.139 73.7715 143.257 74.5184 143.928 75.7256C144.604 76.9327 144.765 78.4786 144.418 80.3631C143.257 86.6465 136.281 98.8049 123.494 116.847Z" fill="#FA2935"/>
</svg>
