<svg width="369" height="29" viewBox="0 0 369 29" fill="none" xmlns="http://www.w3.org/2000/svg">
<path d="M25.6927 4.44979V4.75536C29.2958 3.58721 32.6602 1.63924 36.3333 1.63924C38.1189 1.63924 39.3539 2.61322 39.3539 3.81001C39.3539 5.14686 37.8102 5.92669 36.0946 5.92669C35.0315 5.92669 34.7227 5.62112 34.5158 5.45243L34.7545 5.28373C34.9933 5.53518 35.5789 5.67523 36.0246 5.67523C37.5015 5.67523 38.4277 5.22962 38.4277 4.30974C38.4277 3.30711 36.7789 2.63869 35.4071 2.63869C32.3864 2.63869 28.8533 4.4498 25.5558 5.72935C25.1102 7.76008 23.7351 10.6025 21.8508 13.5531C22.8121 13.7472 23.8752 13.8873 25.0083 13.8873C28.4045 13.8873 32.3864 13.1075 33.2458 10.9653C32.7652 11.1308 32.3196 11.2422 31.804 11.2422C29.7096 11.2422 28.9902 10.4911 28.9902 9.76852C28.9902 8.73724 30.0183 8.23752 31.2883 8.23752C32.8671 8.23752 33.7265 9.046 33.9652 9.93404C35.2702 9.40567 36.3333 8.32027 36.8489 7.73461L37.1227 7.95742C36.3683 8.76589 35.2702 9.87674 34.0352 10.5738C33.8983 13.7186 30.2952 15.0554 26.3802 15.1127C24.5277 15.1127 22.8439 14.7785 21.3352 14.3329C16.9427 20.7084 10.077 27.3608 4.24266 27.3608C3.00767 27.3608 1.63581 26.8037 1.63581 25.1072C1.63581 21.9052 6.16517 17.118 9.29084 17.118C10.354 17.118 11.1433 17.7578 11.1433 18.7317C11.1433 20.0113 9.6346 21.3481 6.85269 22.9619L6.68081 22.7391C8.84204 21.5137 9.8033 20.2628 9.8033 19.6198C9.8033 19.1201 9.52956 18.6745 8.67016 18.6745C6.54076 18.6745 3.17955 20.5938 3.17955 23.7704C3.17955 24.8271 3.96893 25.3841 5.30895 25.3841C9.52956 25.3841 15.6727 19.4829 19.6196 13.7472C18.6233 13.3589 17.7321 12.9674 16.9077 12.6077C16.1183 13.6645 15.0202 14.5016 13.6133 14.5016C12.7221 14.5016 11.8977 14.0846 11.8977 13.2475C11.8977 11.882 13.0658 11.1595 14.4727 11.1595C15.0902 11.1595 15.9496 11.465 16.9427 11.882C17.1146 11.6592 17.2514 11.4364 17.3883 11.1849L17.662 11.2964C17.5602 11.5192 17.4201 11.7961 17.2833 12.0189C18.1076 12.3817 19.0339 12.7414 20.062 13.0756C21.7108 10.6534 22.8757 8.28845 23.2895 6.47734C22.2933 6.7829 21.3002 6.9516 20.3707 6.9516C17.6588 6.9516 16.0801 5.94897 16.0801 4.78082C16.0801 2.63869 19.5463 1.63606 21.332 1.63606C24.2826 1.63606 25.6895 2.44452 25.6895 4.44661L25.6927 4.44979ZM12.5152 12.5218C12.5152 13.1616 13.2345 13.4958 14.1958 13.4958C15.157 13.4958 15.8764 13.0502 16.4939 12.439C15.4308 12.0221 14.5714 11.742 13.782 11.742C12.9926 11.742 12.512 12.1048 12.512 12.5218H12.5152ZM17.7321 3.92142C17.7321 5.08957 19.0021 5.64659 20.8545 5.64659C21.7458 5.64659 22.6402 5.53518 23.4964 5.36967V5.11821C23.5664 3.61585 22.5001 2.41906 20.202 2.41906C19.0689 2.41906 17.7321 3.00154 17.7321 3.92142ZM30.6358 9.31973C30.6358 9.59665 31.0464 10.2396 32.4883 10.2396C32.797 10.2396 33.1058 10.1823 33.3795 10.1282C33.3795 8.96005 32.3832 8.59719 31.6289 8.59719C31.0114 8.59719 30.6326 8.90276 30.6326 9.32291L30.6358 9.31973Z" fill="#FA2935"/>
<path d="M4.24289 28.9937C1.70606 28.9937 0 27.4309 0 25.1041C0 20.9663 5.29327 15.4789 9.28788 15.4789C11.2772 15.4789 12.7764 16.8762 12.7764 18.7287C12.7764 18.9578 12.7541 19.1806 12.7096 19.3971C13.9668 18.2035 15.24 16.8062 16.4591 15.2752C15.5902 15.8385 14.6321 16.1314 13.6135 16.1314C11.6719 16.1314 10.2651 14.9155 10.2651 13.2444C10.2651 11.0864 12.0348 9.52354 14.4729 9.52354C15.0522 9.52354 15.6729 9.66677 16.37 9.90868C16.8188 9.55218 17.4426 9.44397 18.0028 9.67314L18.2766 9.78455C18.6904 9.95324 19.0182 10.2811 19.1805 10.6981C19.2283 10.819 19.2601 10.9463 19.2792 11.0736C19.3174 11.0896 19.3556 11.1023 19.3938 11.115C19.9413 10.2365 20.4155 9.3803 20.7943 8.58138C20.6542 8.58775 20.5142 8.59093 20.3741 8.59093C16.2809 8.59093 14.4507 6.67797 14.4507 4.78411C14.4507 1.52475 18.5599 0.00647531 21.3354 0.00647531C23.5189 0.00647531 26.0366 0.499836 26.9629 2.56876C27.3958 2.40325 27.8286 2.23137 28.2552 2.06267C30.8047 1.05049 33.4402 0.00647531 36.3367 0.00647531C38.9913 0.00647531 40.9902 1.64252 40.9902 3.81012C40.9902 5.29338 40.0321 6.49654 38.5234 7.11403C38.6571 7.33366 38.7367 7.58511 38.7558 7.84612C38.7876 8.2981 38.6284 8.74371 38.3197 9.07474C37.5908 9.85457 36.6486 10.7999 35.5569 11.5511C34.8948 14.7086 31.4891 16.6757 26.4059 16.7489C24.9672 16.7489 23.5253 16.5706 22.0166 16.2078C17.4235 22.5578 10.5483 28.9969 4.24607 28.9969L4.24289 28.9937ZM4.81583 23.6973C4.92405 23.7259 5.12457 23.7546 5.39512 23.7482L5.38557 23.7355C5.14685 23.4267 5.02908 23.048 5.04818 22.666C4.90812 22.9811 4.82537 23.3281 4.81583 23.6973ZM24.547 12.2418C26.008 12.2991 27.3385 12.159 28.4302 11.9458C27.434 11.1468 27.3544 10.0774 27.3544 9.76226C27.3544 8.1867 28.5703 6.5984 31.2885 6.5984C32.5681 6.5984 33.6853 7.01854 34.4747 7.74426C34.602 7.64559 34.7325 7.53737 34.8598 7.42278C34.2328 7.27 33.8285 7.00263 33.5102 6.73845C33.1156 6.41378 32.88 5.90769 32.8991 5.39842C32.9118 5.11832 32.9882 4.84458 33.1251 4.60586C31.5941 5.00373 29.9326 5.69443 28.3029 6.3724C27.8414 6.56338 27.383 6.75436 26.9247 6.93897C26.4727 8.45724 25.6547 10.2715 24.5438 12.2386L24.547 12.2418Z" fill="#FA2935"/>
<path d="M19.8964 24.6299C19.8964 21.1509 24.7696 16.6693 28.9233 16.6693C29.9514 16.6693 30.9477 16.8921 31.5302 17.5319C31.8739 17.5892 32.3896 17.9234 32.3896 18.3403H32.2177C32.0808 18.0348 31.7021 17.8947 31.3933 17.8947C31.0495 17.8947 30.5371 18.1175 30.5371 18.6459C30.5371 19.2602 31.3265 19.9541 32.8034 19.9541C33.7296 19.9541 35.6871 19.7854 36.6802 19.4544V19.7313C35.9609 20.0942 33.3508 20.6225 32.014 20.6225C32.014 23.0448 27.8602 27.3609 23.5696 27.3609C21.1665 27.3895 19.8964 26.3296 19.8964 24.6331V24.6299ZM24.5627 25.2728C28.3727 25.2728 30.8777 22.2395 31.3933 20.7626C30.7058 21.5138 29.1971 22.2108 27.8252 22.2108C26.4534 22.2108 25.4221 21.5424 25.4221 20.3456C25.4221 19.343 26.0746 18.2289 27.0358 17.6178C25.0783 18.1748 22.0609 20.7626 22.0609 23.1307C22.0609 24.5217 23.124 25.276 24.5659 25.276L24.5627 25.2728ZM28.5796 21.0395C29.5058 21.0395 30.4671 20.8995 30.9127 20.5366C30.1933 20.508 29.127 19.8395 29.127 18.9228C29.127 18.0061 29.8464 17.5319 30.5689 17.5319C30.1902 17.3918 29.8146 17.3377 29.5058 17.3377C28.0989 17.3377 26.8958 18.6746 26.8958 19.7313C26.8958 20.5366 27.5833 21.0395 28.5764 21.0395H28.5796Z" fill="#FA2935"/>
<path d="M23.4613 28.9936C21.316 28.9936 20.0969 28.2392 19.4508 27.6026C18.6742 26.8355 18.2636 25.8074 18.2636 24.6329C18.2636 20.1481 23.942 15.0363 28.9233 15.0363C30.362 15.0363 31.5461 15.3991 32.3768 16.0867C33.233 16.44 33.9842 17.2389 34.0224 18.2574C34.815 18.1874 35.6903 18.0633 36.1614 17.9041C36.6579 17.7386 37.2086 17.8214 37.6351 18.1269C38.0616 18.4325 38.3162 18.9259 38.3162 19.4542V19.7312C38.3162 20.3487 37.9661 20.9152 37.4155 21.1921C36.6706 21.5645 34.8659 21.9783 33.3635 22.1598C32.224 25.3936 27.8697 28.9936 23.5727 28.9936C23.5377 28.9936 23.4995 28.9936 23.4645 28.9936H23.4613ZM24.1457 21.8606C23.8656 22.3062 23.6937 22.7454 23.6937 23.1274C23.6937 23.2929 23.6937 23.6367 24.5658 23.6367C25.0369 23.6367 25.4857 23.573 25.909 23.4648C25.1228 23.121 24.5085 22.564 24.1488 21.8606H24.1457Z" fill="#FA2935"/>
<path d="M41.9321 25.8297C41.9321 23.8531 47.079 21.4022 47.079 19.8999C47.079 18.8431 46.2196 18.4803 45.2583 18.4803C42.7883 18.4803 41.3465 20.511 39.2871 20.511C39.1502 20.511 39.0484 20.4824 38.9083 20.4824C37.6033 21.8447 35.7508 23.1529 34.6177 23.99L34.4108 23.7958C35.9895 22.6531 37.4314 21.3736 38.2208 20.2596C37.3964 19.8426 36.7789 19.1169 36.7789 18.5599C36.7789 17.6973 37.9121 16.666 39.147 16.666C39.8346 16.666 40.5539 16.9429 40.5539 17.7227C40.5539 18.4198 40.0383 19.2251 39.3539 20.0336C39.4908 20.0622 39.6277 20.0909 39.7645 20.0909C41.5502 20.0909 43.1289 16.666 46.5952 16.666C48.7914 16.666 50.0264 17.6113 50.0264 19.0309C50.0264 21.676 43.2308 23.4011 43.2308 25.6292C43.2308 26.1862 43.6764 26.686 45.1533 26.686C48.6195 26.686 51.1595 24.0409 51.5701 23.7926L51.777 23.9868C51.3664 24.3497 48.2758 27.3544 44.4308 27.3544C43.3677 27.3544 41.9258 26.8801 41.9258 25.8234L41.9321 25.8297ZM38.5677 19.6198C38.7396 19.3142 38.8065 19.0055 38.8065 18.7285C38.8065 18.0315 38.4627 17.5604 38.0871 17.5604C38.0171 17.5604 37.9152 17.5891 37.8452 17.6432C37.6733 17.7546 37.6383 17.8946 37.6383 18.0888C37.6383 18.5344 38.0171 19.2028 38.5646 19.6198H38.5677Z" fill="#FA2935"/>
<path d="M44.4372 28.9937C42.381 28.9937 40.2993 27.9051 40.2993 25.8298C40.2993 23.9933 42.0499 22.5769 43.7433 21.205C44.1316 20.8899 44.644 20.4761 45.0196 20.126C44.2494 20.1928 43.565 20.5684 42.782 20.9981C41.8685 21.501 40.8404 22.0644 39.5672 22.1376C38.3959 23.2517 37.0209 24.2606 35.98 25.0214L35.5949 25.3047C34.9583 25.7726 34.0766 25.7216 33.5037 25.1773L33.2968 24.9832C32.9435 24.649 32.7557 24.1747 32.7875 23.6877C32.8193 23.2039 33.0644 22.7551 33.4591 22.4686C34.4076 21.7811 35.2448 21.0872 35.8941 20.4506C35.458 19.9159 35.1524 19.2729 35.1524 18.56C35.1524 16.7138 37.059 15.0332 39.1534 15.0332C40.538 15.0332 41.6011 15.6953 42.0117 16.7298C43.1544 15.8672 44.625 15.0332 46.6016 15.0332C50.1028 15.0332 51.6688 17.0417 51.6688 19.0342C51.6688 21.3291 49.3326 22.7583 47.27 24.0187C46.818 24.2957 46.1973 24.6744 45.6944 25.0309C47.7888 24.8209 49.4535 23.4299 50.1983 22.806C50.4466 22.5991 50.6312 22.4591 50.7299 22.3986C51.3601 22.0167 52.1654 22.1026 52.7001 22.6087L52.907 22.8029C53.2412 23.118 53.4258 23.5604 53.4195 24.0187C53.4099 24.4771 53.2094 24.9132 52.8656 25.2155L52.7924 25.2792C50.1188 27.7078 47.2318 28.9905 44.4403 28.9905L44.4372 28.9937Z" fill="#FA2935"/>
<path d="M52.0955 23.8501C52.0955 20.231 57.6561 16.6693 61.533 16.6693C63.2836 16.6693 63.7992 17.3918 63.7992 18.143C63.7992 20.1737 60.298 21.3705 53.8811 23.7673C54.053 24.6299 55.1861 25.5498 57.2805 25.5498C59.6136 25.5498 61.603 25.0214 63.1849 23.796L63.4236 23.9901C62.5642 24.7986 59.6487 27.3577 55.8036 27.3577C53.4705 27.3577 52.0987 25.5211 52.0987 23.8501H52.0955ZM61.256 19.1202C61.256 18.4804 60.7054 18.1748 59.6773 18.1748C56.5898 18.1748 54.0148 20.8453 53.8429 23.2708C57.8248 21.6284 61.256 20.0401 61.256 19.1234V19.1202Z" fill="#FA2935"/>
<path d="M55.8003 28.9937C52.5028 28.9937 50.4593 26.3264 50.4593 23.85C50.4593 18.9833 57.1594 15.0332 61.5328 15.0332C64.4102 15.0332 65.432 16.7075 65.432 18.143C65.432 20.7371 63.0256 22.0326 58.2289 23.8787C59.849 23.7546 61.1477 23.3026 62.179 22.5037C62.7774 22.0389 63.6177 22.0485 64.2097 22.5259L64.4484 22.7201C64.8145 23.0161 65.0341 23.4585 65.0532 23.9296C65.0723 24.4007 64.8845 24.8559 64.5407 25.1805C63.0288 26.6033 59.8809 28.9937 55.8003 28.9937Z" fill="#FA2935"/>
<path d="M65.206 25.8011C65.206 24.9099 65.3779 23.8531 65.6516 22.8218C65.136 23.2102 64.5885 23.6017 64.1079 23.99L63.901 23.7958C64.5185 23.2961 65.206 22.7104 65.8585 22.1248C66.8198 19.3397 68.7423 16.6692 71.1104 16.6692C71.556 16.6692 71.7979 16.8633 71.7979 17.1689C71.7979 18.2829 69.8086 20.0368 67.6091 21.6219C67.4022 22.1216 67.1635 22.7073 67.1635 23.4871C67.1635 24.9067 67.9529 25.3809 68.8441 25.3809C71.9316 25.3809 75.1241 22.7104 76.3941 20.7593C74.4047 20.842 72.756 20.4251 72.756 19.171C72.756 17.8341 74.6085 16.666 76.2572 16.666C77.3904 16.666 78.3166 17.1944 78.3166 18.3084C78.3166 18.754 78.1447 19.2824 77.836 19.8967C79.2779 19.954 80.8916 19.8139 82.0566 19.4511L82.0916 19.728C80.8216 20.1736 79.001 20.5619 77.3204 20.7306C75.331 23.6526 70.6966 27.3576 67.0585 27.3576C65.9954 27.3576 65.206 26.6891 65.206 25.7979V25.8011ZM76.8747 19.8426C76.9448 19.6198 76.9766 19.4797 76.9766 19.3142C76.9766 18.3116 75.9485 17.7291 75.0891 17.7291C74.4716 17.7291 73.9209 18.0347 73.9209 18.4803C73.9209 19.1773 75.226 19.6484 76.8715 19.8426H76.8747Z" fill="#FA2935"/>
<path d="M67.0585 28.9936C65.1041 28.9936 63.5699 27.5899 63.5699 25.8011C63.5699 25.7119 63.5699 25.626 63.5731 25.5369C63.3599 25.4637 63.1561 25.3427 62.9811 25.1772L62.7742 24.9831C62.4304 24.6584 62.2458 24.2032 62.2649 23.7321C62.284 23.2611 62.5036 22.8218 62.8697 22.5258C63.379 22.112 63.9328 21.6441 64.458 21.1794C65.6102 18.1365 67.9083 15.0363 71.104 15.0363C72.043 15.0363 72.705 15.4437 73.0775 16.0071C74.0101 15.396 75.1623 15.0363 76.254 15.0363C78.3866 15.0363 79.889 16.3318 79.9463 18.2002C80.5638 18.1365 81.1272 18.0315 81.5696 17.8914C82.0311 17.745 82.534 17.815 82.9383 18.0792C83.3457 18.3402 83.6131 18.7699 83.6735 19.2505L83.7086 19.5274C83.804 20.2914 83.3521 21.0171 82.6263 21.2717C81.4105 21.6982 79.7744 22.0643 78.2148 22.2712C75.9612 25.1836 71.26 28.9904 67.0553 28.9904L67.0585 28.9936ZM68.8155 23.7481C68.8155 23.7481 68.8346 23.7481 68.8441 23.7481C70.2764 23.7481 71.8393 22.9332 73.087 21.9306C72.6605 21.7492 72.2944 21.5168 71.9984 21.2335C71.7883 21.033 71.6165 20.8102 71.4796 20.5715C70.8526 21.1762 70.0282 21.8669 68.9523 22.6659C68.8568 22.93 68.7932 23.191 68.7932 23.4902C68.7932 23.608 68.8027 23.6908 68.8123 23.7481H68.8155Z" fill="#FA2935"/>
<path d="M79.6916 23.8501C79.6916 20.231 85.2522 16.6693 89.1291 16.6693C90.8797 16.6693 91.3953 17.3918 91.3953 18.143C91.3953 20.1737 87.8941 21.3705 81.4772 23.7673C81.6491 24.6299 82.7822 25.5498 84.8766 25.5498C87.2097 25.5498 89.2023 25.0214 90.781 23.796L91.0197 23.9901C90.1603 24.7986 87.2447 27.3577 83.3997 27.3577C81.0666 27.3577 79.6948 25.5211 79.6948 23.8501H79.6916ZM88.8553 19.1202C88.8553 18.4804 88.3079 18.1748 87.2766 18.1748C84.1891 18.1748 81.6141 20.8453 81.4422 23.2708C85.4241 21.6284 88.8553 20.0401 88.8553 19.1234V19.1202Z" fill="#FA2935"/>
<path d="M83.3966 28.9937C80.0991 28.9937 78.0556 26.3264 78.0556 23.85C78.0556 18.9833 84.7558 15.0332 89.1292 15.0332C92.0066 15.0332 93.0283 16.7075 93.0283 18.143C93.0283 20.7371 90.622 22.0326 85.8252 23.8787C87.4454 23.7546 88.744 23.3026 89.7721 22.5037C90.3737 22.0389 91.214 22.0485 91.8029 22.5259L92.0416 22.7201C92.4076 23.0161 92.6272 23.4585 92.6463 23.9296C92.6654 24.4007 92.4776 24.8559 92.1339 25.1805C90.622 26.6033 87.474 28.9937 83.3935 28.9937H83.3966Z" fill="#FA2935"/>
<path d="M99.0154 25.8297C99.0154 23.8531 104.162 21.4022 104.162 19.8999C104.162 18.8431 103.306 18.4803 102.345 18.4803C99.8749 18.4803 98.433 20.511 96.3736 20.511C96.2367 20.511 96.1317 20.4824 95.9948 20.4824C94.6898 21.8447 92.8373 23.1529 91.7042 23.99L91.4973 23.7958C93.076 22.6531 94.5179 21.3736 95.3073 20.2596C94.4829 19.8426 93.8654 19.1169 93.8654 18.5599C93.8654 17.6973 94.9986 16.666 96.2335 16.666C96.9211 16.666 97.6404 16.9429 97.6404 17.7227C97.6404 18.4198 97.1248 19.2251 96.4404 20.0336C96.5773 20.0622 96.7142 20.0909 96.851 20.0909C98.6367 20.0909 100.215 16.666 103.682 16.666C105.878 16.666 107.113 17.6113 107.113 19.0309C107.113 21.676 100.317 23.4011 100.317 25.6292C100.317 26.1862 100.763 26.686 102.24 26.686C105.706 26.686 108.246 24.0409 108.657 23.7926L108.864 23.9868C108.453 24.3497 105.362 27.3544 101.517 27.3544C100.454 27.3544 99.0123 26.8801 99.0123 25.8234L99.0154 25.8297ZM95.6511 19.6198C95.8229 19.3142 95.8898 19.0055 95.8898 18.7285C95.8898 18.0315 95.546 17.5604 95.1704 17.5604C95.1004 17.5604 94.9985 17.5891 94.9317 17.6432C94.7598 17.7546 94.7248 17.8946 94.7248 18.0888C94.7248 18.5344 95.1036 19.2028 95.6511 19.6198Z" fill="#FA2935"/>
<path d="M101.52 28.9936C99.4641 28.9936 97.3825 27.905 97.3825 25.8297C97.3825 23.9931 99.1331 22.5767 100.826 21.2049C101.215 20.8898 101.727 20.476 102.103 20.1258C101.333 20.1927 100.648 20.5683 99.8652 20.998C98.9517 21.5009 97.9236 22.0675 96.6504 22.1375C95.4791 23.2515 94.1008 24.2605 93.06 25.0244L92.6781 25.3045C92.0415 25.7756 91.1598 25.7215 90.5869 25.1772L90.38 24.9831C90.0267 24.6488 89.8389 24.1746 89.8707 23.6876C89.9025 23.2006 90.1476 22.755 90.5423 22.4717C91.4908 21.7842 92.328 21.0903 92.9773 20.4537C92.5412 19.919 92.2356 19.276 92.2356 18.563C92.2356 16.7169 94.1422 15.0363 96.2366 15.0363C97.6212 15.0363 98.6843 15.6983 99.0949 16.7328C100.238 15.8702 101.708 15.0363 103.685 15.0363C107.183 15.0363 108.752 17.0447 108.752 19.0373C108.752 21.3322 106.416 22.7613 104.353 24.0218C103.901 24.2987 103.281 24.6775 102.778 25.034C104.875 24.8239 106.54 23.4329 107.282 22.8091C107.53 22.6022 107.714 22.4621 107.813 22.4017C108.443 22.0197 109.249 22.1056 109.783 22.6117L109.99 22.8059C110.324 23.121 110.509 23.5634 110.503 24.0218C110.496 24.4801 110.293 24.9162 109.949 25.2186L109.876 25.2854C107.202 27.714 104.315 28.9968 101.524 28.9968L101.52 28.9936Z" fill="#FA2935"/>
<path d="M126.99 19.6199C128.639 19.6199 129.804 20.6226 131.144 21.848C135.674 16.7266 139.862 7.59468 144.599 3.58733H143.602C141.613 3.58733 139.792 3.95018 138.487 4.56131C138.214 6.53793 137.01 8.23764 135.228 8.23764C134.817 8.23764 134.54 7.98618 134.54 7.68062C134.54 6.64934 135.775 5.20427 138.179 4.14434C138.249 3.67008 138.28 3.17036 138.249 2.67064H138.487C138.557 3.0876 138.557 3.53322 138.522 3.95018C140.308 3.25311 142.606 2.75339 145.49 2.75339H145.732C146.795 2.05632 147.893 1.63935 149.061 1.63935C150.64 1.63935 152.152 2.22184 153.661 3.55868L153.387 3.75284C152.359 3.00166 151.397 2.44464 150.162 2.44464C149.373 2.44464 148.584 2.61016 147.864 2.91891C152.155 3.53004 154.316 5.86951 154.316 8.2631C154.316 10.8795 151.913 12.9962 149.029 14.2471C151.331 15.5266 152.769 17.3918 152.769 19.4544C152.769 24.6872 146.282 27.3609 140.792 27.3609C135.301 27.3609 132.863 25.884 130.941 24.4103C128.916 26.1927 126.615 27.3609 123.973 27.3609C122.738 27.3609 121.366 26.8039 121.366 25.1073C121.366 21.9053 124.899 19.6231 126.994 19.6231L126.99 19.6199ZM122.391 23.7419C122.391 24.8559 123.282 25.553 125.033 25.553C126.647 25.553 128.19 24.6904 129.699 23.3535C128.394 22.2681 127.331 21.4056 125.545 21.4056C124.037 21.4056 122.388 22.4082 122.388 23.745L122.391 23.7419ZM132.344 23.0161C134.302 24.7699 136.807 26.6065 141.164 26.6065C145.522 26.6065 150.535 24.0442 150.535 19.3398C150.535 17.1977 149.507 15.6667 148.03 14.664C146.279 15.3038 144.494 15.638 142.95 15.638C140.308 15.638 138.796 15.3325 138.179 14.6895C136.393 17.6688 134.505 20.6767 132.344 23.013V23.0161ZM136.154 6.62069C136.154 6.8435 136.256 6.92626 136.393 6.92626C136.874 6.92626 137.628 6.03503 138.007 4.78094C136.842 5.33796 136.154 6.03503 136.154 6.61751V6.62069ZM138.831 14.3298C138.831 14.8296 140.273 15.0269 141.919 15.0269C143.36 15.0269 145.146 14.664 146.757 13.9956C145.385 13.3845 143.771 13.1044 142.227 13.1044C140.031 13.1044 138.831 13.9383 138.831 14.3298ZM139.382 12.7447C139.929 12.6047 140.652 12.5219 141.613 12.5219C143.844 12.5219 145.939 12.9102 147.654 13.6073C149.956 12.4933 151.843 10.7394 151.843 8.56867C151.843 6.39789 149.921 4.44991 146.282 3.80695C143.812 5.61806 141.616 9.03974 139.385 12.7415L139.382 12.7447Z" fill="#FA2935"/>
<path d="M140.789 28.9936C135.919 28.9936 132.997 27.7618 131.004 26.46C128.767 28.1406 126.405 28.9936 123.97 28.9936C121.535 28.9936 119.727 27.4308 119.727 25.104C119.727 20.9757 124.065 17.9869 126.99 17.9869C128.62 17.9869 129.893 18.6935 130.953 19.5211C132.484 17.5668 134.022 15.1636 135.518 12.8242C136.422 11.4109 137.335 9.97859 138.271 8.61309C137.434 9.40883 136.383 9.87036 135.231 9.87036C133.929 9.87036 132.911 8.90911 132.911 7.68048C132.911 6.03171 134.314 4.32246 136.632 3.08428C136.632 2.97925 136.632 2.88057 136.622 2.7819C136.59 2.32992 136.749 1.88749 137.058 1.55328C137.367 1.22225 137.8 1.03446 138.252 1.03446H138.491C139.067 1.03446 139.582 1.33684 139.875 1.79837C141.537 1.3623 143.341 1.13631 145.267 1.11721C146.537 0.369217 147.785 0.00317657 149.064 0.00317657C151.114 0.00317657 152.976 0.767085 154.746 2.3331C155.118 2.66413 155.322 3.14795 155.293 3.64449C155.271 4.07419 155.08 4.47524 154.765 4.76171C155.593 5.89484 155.949 7.14256 155.949 8.25978C155.949 10.612 154.565 12.7891 152.075 14.4506C153.578 15.8862 154.405 17.6241 154.405 19.4479C154.405 25.6451 147.393 28.9872 140.792 28.9872L140.789 28.9936ZM134.668 22.8282C136.199 23.9868 138.166 24.9735 141.164 24.9735C144.163 24.9735 148.899 23.1847 148.899 19.3429C148.899 18.1843 148.511 17.2485 147.712 16.4973C146.079 17.0066 144.449 17.2739 142.947 17.2739C141.148 17.2739 139.802 17.1371 138.79 16.8347C137.561 18.8431 136.186 20.9598 134.665 22.8282H134.668ZM124.03 23.7735C124.069 23.7735 124.336 23.9168 125.033 23.9168C125.625 23.9168 126.252 23.7322 126.933 23.3566C126.507 23.1433 126.08 23.0383 125.549 23.0383C124.702 23.0383 124.059 23.5603 124.024 23.7449C124.024 23.7608 124.024 23.7704 124.024 23.7767C124.024 23.7767 124.024 23.7767 124.027 23.7767L124.03 23.7735ZM142.441 10.9048C144.258 10.978 145.996 11.29 147.543 11.8215C149.223 10.873 150.207 9.68575 150.207 8.56853C150.207 7.24124 148.851 6.10174 146.696 5.56381C145.235 6.82108 143.812 8.76905 142.441 10.9016V10.9048ZM139.91 5.75161C139.802 6.1463 139.665 6.5187 139.503 6.86565C139.827 6.4264 140.152 5.9967 140.483 5.58291C140.286 5.63384 140.095 5.69113 139.91 5.75161Z" fill="#FA2935"/>
<path d="M154.625 24.6872C154.625 21.4597 159.912 16.6693 163.687 16.6693C165.574 16.6693 166.262 17.6146 166.262 18.8401C167.325 17.9488 167.121 16.8348 167.942 16.8348C168.97 16.8348 169.177 16.612 169.451 16.7521C170.139 17.029 166.704 20.0369 164.199 23.4044C163.649 24.127 163.168 24.9927 163.168 25.5752C163.168 25.9381 163.512 26.2723 164.231 26.2723C166.736 26.2723 169.346 24.1015 169.687 23.796L169.894 23.9901C169.483 24.353 166.392 27.3577 162.55 27.3577C161.487 27.3577 160.765 26.8834 160.765 26.3009C159.94 27.0235 158.775 27.3577 157.677 27.3577C155.618 27.3577 154.622 26.1323 154.622 24.684L154.625 24.6872ZM158.744 25.0755C161.522 25.0755 165.297 21.3451 165.297 19.0342C165.297 18.1717 164.645 17.726 163.649 17.726C161.245 17.726 156.955 20.6766 156.955 23.4044C156.955 24.2129 157.299 25.0755 158.74 25.0755H158.744Z" fill="#FA2935"/>
<path d="M162.554 28.9936C161.717 28.9936 160.975 28.7899 160.399 28.4397C159.575 28.7994 158.642 28.9936 157.681 28.9936C154.921 28.9936 152.992 27.2239 152.992 24.687C152.992 20.5396 159.087 15.0363 163.687 15.0363C164.874 15.0363 165.769 15.3228 166.421 15.7811C166.768 15.4564 167.255 15.2018 167.942 15.2018C168.309 15.2018 168.512 15.1668 168.691 15.135C169.009 15.0809 169.54 14.9854 170.145 15.2718C170.642 15.501 171.008 15.9498 171.132 16.4813C171.396 17.6304 170.68 18.4198 168.773 20.5301C167.783 21.625 166.552 22.9873 165.517 24.3783C165.514 24.3846 165.508 24.391 165.504 24.3942C166.857 23.9422 168.156 22.9746 168.611 22.5735C169.244 22.007 170.202 22.0229 170.82 22.6054L171.027 22.7995C171.361 23.1146 171.546 23.5571 171.539 24.0154C171.53 24.4738 171.329 24.9098 170.985 25.2122L170.912 25.2759C168.239 27.7045 165.352 28.9872 162.56 28.9872L162.554 28.9936ZM158.591 23.4361C158.629 23.4393 158.68 23.4425 158.741 23.4425C160.596 23.4425 163.225 20.7975 163.614 19.3619C161.863 19.3938 158.591 21.7905 158.591 23.4075C158.591 23.417 158.591 23.4298 158.591 23.4393V23.4361Z" fill="#FA2935"/>
<path d="M180.162 25.9126C180.162 24.3275 183.972 21.4883 183.972 19.2029C183.972 18.4518 183.421 18.0348 182.291 18.0348C179.373 18.0348 177.11 20.4284 175.496 22.6278C173.093 25.8012 173.71 27.0267 172.991 27.0267C172.545 27.0267 172.303 26.9153 171.686 26.9153C171.17 26.9153 170.795 27.0267 170.279 27.0267C169.044 27.0267 177.04 20.4857 177.04 18.4518C175.222 19.7058 173.058 21.988 170.588 23.9901L170.381 23.796C173.847 20.8453 177.176 17.0035 177.794 17.0035C178.204 17.0035 178.138 17.0863 178.653 17.0863C179.032 17.0863 179.373 17.0035 179.65 17.0035C180.232 17.0035 179.204 17.9234 178.825 18.3945C179.751 17.9775 182.498 16.6693 184.831 16.6693C186.066 16.6693 187.2 17.1436 187.2 18.1717C187.2 20.1196 182.428 23.4331 182.428 25.5211C182.428 25.9954 182.976 26.2723 183.733 26.2723C186.238 26.2723 188.778 24.0442 189.157 23.796L189.396 23.9901C188.985 24.353 185.895 27.3577 182.018 27.3577C180.955 27.3577 180.165 26.9121 180.165 25.9094L180.162 25.9126Z" fill="#FA2935"/>
<path d="M182.015 28.9937C179.93 28.9937 178.526 27.7555 178.526 25.9126C178.526 24.6171 179.455 23.4585 180.531 22.1185C181.107 21.3992 181.922 20.387 182.221 19.6676C180.493 19.6995 178.723 20.9854 176.81 23.5922C175.569 25.2346 175.254 26.2277 175.066 26.8229C174.907 27.3258 174.487 28.6595 172.988 28.6595C172.663 28.6595 172.412 28.6213 172.211 28.5927C172.03 28.5672 171.899 28.5481 171.686 28.5481C171.501 28.5481 171.345 28.5704 171.186 28.5927C170.941 28.6245 170.639 28.6627 170.279 28.6627C169.547 28.6627 168.923 28.2585 168.649 27.6059C168.302 26.7784 168.506 26.1609 169.394 25.1169L169.257 24.9895C168.92 24.6712 168.732 24.2225 168.745 23.7577C168.757 23.293 168.964 22.857 169.318 22.5546C170.903 21.205 172.488 19.6358 173.761 18.3722C176.088 16.0677 176.791 15.3706 177.791 15.3706C178.131 15.3706 178.338 15.4088 178.507 15.4438C178.698 15.4789 178.86 15.4375 179.023 15.4184C179.249 15.3897 179.459 15.3674 179.646 15.3674C180.111 15.3674 180.534 15.5234 180.853 15.7971C182.059 15.3865 183.472 15.0332 184.828 15.0332C187.184 15.0332 188.829 16.3223 188.829 18.1716C188.829 19.7536 187.499 21.24 186.089 22.8156C185.694 23.258 185.099 23.9201 184.656 24.5026C186.031 24.127 187.403 23.0734 187.916 22.6787C188.069 22.5609 188.183 22.4782 188.247 22.4336C188.842 22.0389 189.625 22.0771 190.179 22.5259L190.418 22.7201C190.79 23.0225 191.013 23.4745 191.022 23.9583C191.032 24.4389 190.828 24.9004 190.468 25.2187L190.398 25.2824C187.725 27.711 184.825 28.9937 182.011 28.9937H182.015Z" fill="#FA2935"/>
<path d="M199.658 25.9126C199.658 24.3275 203.468 21.4883 203.468 19.2029C203.468 18.4518 202.917 18.0348 201.787 18.0348C198.872 18.0348 196.605 20.4284 194.991 22.6278C192.588 25.8012 193.206 27.0267 192.486 27.0267C192.041 27.0267 191.799 26.9153 191.181 26.9153C190.666 26.9153 190.29 27.0267 189.775 27.0267C188.54 27.0267 196.535 20.4857 196.535 18.4518C194.715 19.7058 192.553 21.988 190.083 23.9901L189.876 23.796C193.343 20.8453 196.672 17.0035 197.29 17.0035C197.7 17.0035 197.633 17.0863 198.149 17.0863C198.528 17.0863 198.868 17.0035 199.145 17.0035C199.728 17.0035 198.7 17.9234 198.321 18.3945C199.247 17.9775 201.994 16.6693 204.327 16.6693C205.562 16.6693 206.695 17.1436 206.695 18.1717C206.695 20.1196 201.924 23.4331 201.924 25.5211C201.924 25.9954 202.475 26.2723 203.229 26.2723C205.734 26.2723 208.274 24.0442 208.653 23.796L208.892 23.9901C208.481 24.353 205.39 27.3577 201.513 27.3577C200.45 27.3577 199.661 26.9121 199.661 25.9094L199.658 25.9126Z" fill="#FA2935"/>
<path d="M201.51 28.9936C199.425 28.9936 198.022 27.7554 198.022 25.9125C198.022 24.617 198.951 23.4584 200.027 22.1184C200.603 21.399 201.418 20.3868 201.717 19.6675C199.989 19.6993 198.219 20.9852 196.306 23.5921C195.061 25.2345 194.749 26.2276 194.562 26.8228C194.403 27.3257 193.982 28.6594 192.483 28.6594C192.159 28.6594 191.907 28.6212 191.707 28.5925C191.525 28.5671 191.395 28.548 191.178 28.548C190.994 28.548 190.838 28.5703 190.679 28.5925C190.433 28.6244 190.131 28.6626 189.771 28.6626C189.039 28.6626 188.415 28.2583 188.142 27.6058C187.795 26.7782 187.998 26.1607 188.886 25.1167L188.75 24.9894C188.412 24.6711 188.228 24.2223 188.237 23.7608C188.25 23.2961 188.457 22.86 188.81 22.5576C190.392 21.208 191.977 19.6389 193.25 18.3784C195.58 16.0708 196.281 15.3737 197.28 15.3737C197.617 15.3737 197.827 15.4119 197.996 15.4469C198.187 15.4819 198.349 15.4405 198.512 15.4214C198.738 15.3928 198.948 15.3705 199.136 15.3705C199.6 15.3705 200.02 15.5265 200.342 15.8002C201.548 15.3896 202.962 15.0363 204.317 15.0363C206.673 15.0363 208.318 16.3254 208.318 18.1747C208.318 19.7566 206.988 21.2431 205.578 22.8186C205.183 23.2611 204.588 23.9231 204.146 24.5056C205.521 24.13 206.892 23.0765 207.405 22.6818C207.558 22.564 207.669 22.4812 207.736 22.4367C208.331 22.0388 209.114 22.077 209.668 22.529L209.907 22.7231C210.279 23.0255 210.502 23.4775 210.512 23.9613C210.521 24.4419 210.317 24.9035 209.958 25.2218L209.888 25.2854C207.214 27.714 204.314 28.9968 201.501 28.9968L201.51 28.9936Z" fill="#FA2935"/>
<path d="M209.203 23.8501C209.203 20.231 214.764 16.6693 218.641 16.6693C220.391 16.6693 220.907 17.3918 220.907 18.143C220.907 20.1737 217.406 21.3705 210.989 23.7673C211.161 24.6299 212.294 25.5498 214.385 25.5498C216.718 25.5498 218.711 25.0214 220.29 23.796L220.528 23.9901C219.672 24.7986 216.753 27.3577 212.908 27.3577C210.575 27.3577 209.203 25.5211 209.203 23.8501ZM218.364 19.1202C218.364 18.4804 217.816 18.1748 216.785 18.1748C213.698 18.1748 211.123 20.8453 210.951 23.2708C214.933 21.6284 218.364 20.0401 218.364 19.1234V19.1202Z" fill="#FA2935"/>
<path d="M212.908 28.9937C209.611 28.9937 207.567 26.3264 207.567 23.85C207.567 18.9833 214.267 15.0332 218.641 15.0332C221.518 15.0332 222.54 16.7075 222.54 18.143C222.54 20.7371 220.134 22.0326 215.34 23.8787C216.96 23.7546 218.259 23.3026 219.287 22.5037C219.885 22.0389 220.729 22.0485 221.318 22.5259L221.556 22.7201C221.922 23.0161 222.142 23.4585 222.161 23.9296C222.18 24.4007 221.992 24.8559 221.649 25.1805C220.137 26.6033 216.989 28.9937 212.908 28.9937Z" fill="#FA2935"/>
<path d="M220.837 24.6872C220.837 21.5424 226.019 16.6693 229.899 16.6693C231.685 16.6693 232.369 17.5033 232.474 18.6173C240.059 8.9029 240.266 6.98039 240.95 6.98039C241.122 6.98039 241.501 7.06314 241.74 7.06314C242.392 7.06314 242.838 6.98039 243.077 6.98039C243.248 6.98039 243.315 6.98039 243.315 7.1459C243.315 7.67428 238.614 12.2418 233.292 19.3653C229.756 24.0984 229.415 24.7954 229.415 25.5721C229.415 25.9349 229.724 26.2691 230.478 26.2691C232.983 26.2691 235.558 24.0697 235.902 23.7928L236.141 23.987C235.73 24.3498 232.64 27.3545 228.763 27.3545C227.7 27.3545 226.977 26.9089 226.977 26.3233C226.153 27.0203 225.02 27.3545 223.89 27.3545C221.795 27.3545 220.834 26.1291 220.834 24.6809L220.837 24.6872ZM224.819 25.2729C227.598 25.2729 231.513 21.4024 231.513 19.1202C231.513 18.2576 230.895 17.7834 229.899 17.7834C227.496 17.7834 223.037 20.874 223.037 23.6018C223.037 24.4103 223.38 25.2729 224.822 25.2729H224.819Z" fill="#FA2935"/>
<path d="M228.766 28.9936C227.881 28.9936 227.162 28.7836 226.614 28.4525C225.793 28.8058 224.864 28.9936 223.893 28.9936C221.133 28.9936 219.204 27.2239 219.204 24.6871C219.204 20.5397 225.3 15.0363 229.899 15.0363C230.991 15.0363 231.907 15.2942 232.605 15.7716C236.055 11.2454 237.634 8.73725 238.442 7.45451C239.27 6.13995 239.769 5.34739 240.95 5.34739C241.084 5.34739 241.291 5.36967 241.514 5.4015C241.596 5.41423 241.682 5.43015 241.756 5.43333C242.077 5.43333 242.351 5.40468 242.558 5.38559C242.774 5.36331 242.946 5.35057 243.08 5.35057C244.369 5.35057 244.954 6.28318 244.954 7.15213C244.954 8.02108 244.572 8.41895 242.459 10.8157C240.568 12.9579 237.71 16.1981 234.607 20.3519C233.77 21.4723 232.449 23.242 231.675 24.4229C232.643 24.111 233.728 23.4775 234.82 22.58C235.421 22.0866 236.335 22.042 236.937 22.5322L237.175 22.7264C237.548 23.0287 237.771 23.4807 237.78 23.9645C237.79 24.4452 237.586 24.9067 237.226 25.225L237.156 25.2887C234.483 27.7173 231.583 29 228.769 29L228.766 28.9936ZM224.669 23.6303C224.711 23.6335 224.759 23.6367 224.819 23.6367C226.637 23.6367 229.444 20.8357 229.832 19.4161C228.101 19.4797 224.669 22.0198 224.669 23.5985C224.669 23.6081 224.669 23.6208 224.669 23.6303Z" fill="#FA2935"/>
<path d="M263.778 2.66733H264.052C264.122 3.0843 264.122 3.52991 264.087 3.94688C265.873 3.24981 268.171 2.75009 271.02 2.75009C271.293 2.75009 271.535 2.75009 271.809 2.77873C272.872 2.0562 273.97 1.63923 275.103 1.63923C276.682 1.63923 278.191 2.22171 279.703 3.55856L279.429 3.75272C278.401 3.00154 277.44 2.44452 276.201 2.44452C275.345 2.44452 274.553 2.63868 273.798 2.97289C277.815 3.69543 279.84 5.95215 279.84 8.26298C279.84 12.5791 274.244 14.8613 269.371 14.7499C267.381 14.6671 265.803 14.4729 264.565 14.0814C260.548 20.5397 256.26 27.3608 250.012 27.3608C248.777 27.3608 247.405 26.8037 247.405 25.1072C247.405 21.9052 251.935 17.118 255.06 17.118C256.123 17.118 256.913 17.7578 256.913 18.7317C256.913 20.0113 255.401 21.3481 252.622 22.9619L252.45 22.7391C254.611 21.5137 255.573 20.2628 255.573 19.6198C255.573 19.1201 255.299 18.6745 254.439 18.6745C252.31 18.6745 248.949 20.5938 248.949 23.7704C248.949 24.8271 249.773 25.4669 250.973 25.4669C255.709 25.4669 259.555 19.5116 263.33 13.5817C261.821 12.8019 261.168 11.6592 261.031 10.2682H261.41C261.41 11.3536 262.028 12.3849 263.641 13.0533C265.975 9.37702 268.241 5.81528 270.676 3.6445C270.195 3.58721 269.68 3.5872 269.167 3.5872C267.178 3.5872 265.357 3.97871 264.052 4.56119C263.778 6.53781 262.575 8.23751 260.793 8.23751C260.347 8.23751 260.073 7.98606 260.073 7.6805C260.073 6.64922 261.308 5.20415 263.711 4.14422C263.781 3.66996 263.848 3.17024 263.781 2.67051L263.778 2.66733ZM261.684 6.62057C261.684 6.84338 261.821 6.92614 261.958 6.92614C262.438 6.92614 263.158 6.0349 263.536 4.78082C262.403 5.33783 261.684 6.0349 261.684 6.61739V6.62057ZM264.943 13.4671C266.076 13.744 267.585 13.8841 269.441 13.8841C272.7 13.8841 277.128 12.3817 277.128 8.3712C277.128 6.64603 275.514 4.69806 272.255 3.91824C269.68 5.89486 267.346 9.59664 264.943 13.4671Z" fill="#FA2935"/>
<path d="M250.015 28.9936C247.478 28.9936 245.772 27.4308 245.772 25.104C245.772 20.9662 251.066 15.4787 255.06 15.4787C256.763 15.4787 258.106 16.5005 258.456 17.9583C259.367 16.7074 260.255 15.3546 261.114 14.0146C260.121 13.0883 259.548 11.8884 259.405 10.4274C259.376 10.125 259.43 9.82263 259.561 9.55526C258.883 9.1733 258.437 8.4826 258.437 7.67731C258.437 6.02535 259.844 4.31291 262.171 3.07156C262.171 3.0079 262.165 2.94424 262.158 2.88695C262.095 2.41905 262.235 1.94479 262.547 1.59148C262.859 1.23499 263.307 1.03128 263.778 1.03128H264.052C264.628 1.03128 265.144 1.33048 265.434 1.79519C267.156 1.34321 269.027 1.11404 271.02 1.11404C271.141 1.11404 271.258 1.11404 271.373 1.11404C272.608 0.372407 273.859 0 275.103 0C277.153 0 279.012 0.763909 280.785 2.32993C281.157 2.66096 281.361 3.14476 281.332 3.64131C281.304 4.13785 281.052 4.59938 280.645 4.88585L280.467 5.01317C281.119 5.97761 281.473 7.07572 281.473 8.2566C281.473 10.0359 280.75 11.6815 279.381 13.0183C277.169 15.1827 273.33 16.4782 269.333 16.3763C267.716 16.3095 266.411 16.1726 265.322 15.953C261.378 22.268 256.849 28.9904 250.012 28.9904L250.015 28.9936ZM250.817 22.6659C250.668 23.0033 250.585 23.3725 250.585 23.7672C250.575 23.7704 250.712 23.8308 250.977 23.8308C251.059 23.8308 251.142 23.8308 251.225 23.8213L251.158 23.7354C250.919 23.4266 250.801 23.0478 250.817 22.6627V22.6659ZM267.665 12.2003C268.209 12.2353 268.801 12.2512 269.441 12.2512C271.125 12.2512 275.495 11.5542 275.495 8.37438C275.495 7.4927 274.518 6.36911 272.637 5.72933C270.931 7.27307 269.24 9.72395 267.665 12.2003ZM262.779 9.37383C262.948 9.62846 263.043 9.93721 263.043 10.2651C263.043 10.3637 263.043 10.5388 263.167 10.7457C264.39 8.83272 265.593 7.01207 266.837 5.42059C266.353 5.50971 265.892 5.62111 265.469 5.76116C265.013 7.41949 264.036 8.70859 262.776 9.37383H262.779Z" fill="#FA2935"/>
<path d="M271.055 25.8297C271.055 23.8531 276.201 21.4022 276.201 19.8999C276.201 18.8431 275.345 18.4803 274.384 18.4803C271.914 18.4803 270.472 20.511 268.413 20.511C268.276 20.511 268.174 20.4824 268.034 20.4824C266.729 21.8447 264.876 23.1529 263.743 23.99L263.536 23.7958C265.115 22.6531 266.557 21.3736 267.346 20.2596C266.522 19.8426 265.905 19.1169 265.905 18.5599C265.905 17.6973 267.038 16.666 268.273 16.666C268.96 16.666 269.68 16.9429 269.68 17.7227C269.68 18.4198 269.164 19.2251 268.48 20.0336C268.616 20.0622 268.753 20.0909 268.89 20.0909C270.676 20.0909 272.255 16.666 275.721 16.666C277.917 16.666 279.152 17.6113 279.152 19.0309C279.152 21.676 272.356 23.4011 272.356 25.6292C272.356 26.1862 272.802 26.686 274.279 26.686C277.745 26.686 280.285 24.0409 280.696 23.7926L280.903 23.9868C280.492 24.3497 277.401 27.3544 273.56 27.3544C272.497 27.3544 271.055 26.8801 271.055 25.8234V25.8297ZM267.69 19.6198C267.862 19.3142 267.932 19.0055 267.932 18.7285C267.932 18.0315 267.588 17.5604 267.213 17.5604C267.143 17.5604 267.041 17.5891 266.974 17.6432C266.802 17.7546 266.767 17.8946 266.767 18.0888C266.767 18.5344 267.146 19.2028 267.693 19.6198H267.69Z" fill="#FA2935"/>
<path d="M273.56 28.9936C271.503 28.9936 269.422 27.905 269.422 25.8297C269.422 23.9931 271.172 22.5767 272.866 21.2049C273.254 20.8898 273.766 20.476 274.142 20.1258C273.372 20.1927 272.687 20.5683 271.904 20.998C270.991 21.5009 269.963 22.0643 268.69 22.1375C267.518 23.2515 266.14 24.2605 265.099 25.0244L264.717 25.3045C264.081 25.7756 263.199 25.7215 262.626 25.1772L262.419 24.9831C262.066 24.6488 261.878 24.1746 261.91 23.6876C261.942 23.2006 262.187 22.755 262.582 22.4717C263.53 21.7842 264.367 21.0903 265.016 20.4537C264.58 19.919 264.275 19.276 264.275 18.563C264.275 16.7169 266.181 15.0363 268.276 15.0363C269.66 15.0363 270.724 15.6983 271.134 16.7328C272.277 15.8702 273.747 15.0363 275.724 15.0363C279.222 15.0363 280.791 17.0447 280.791 19.0373C280.791 21.3322 278.455 22.7613 276.392 24.0218C275.94 24.2987 275.32 24.6775 274.817 25.034C276.914 24.8239 278.579 23.4329 279.321 22.8091C279.569 22.6022 279.754 22.4621 279.852 22.4017C280.479 22.0197 281.288 22.1056 281.826 22.6117L282.033 22.8059C282.367 23.121 282.551 23.5634 282.545 24.0218C282.536 24.4801 282.335 24.9162 281.991 25.2186L281.918 25.2823C279.244 27.7109 276.357 28.9936 273.566 28.9936H273.56Z" fill="#FA2935"/>
<path d="M284.204 24.9098C284.204 23.6016 285.165 21.9019 286.502 20.1226C286.673 19.8998 286.845 19.677 286.982 19.4828C285.779 20.4568 283.653 22.2934 281.594 23.9931L281.387 23.7989C284.853 20.8483 288.182 17.0065 288.835 17.0065C289.042 17.0065 289.042 17.0892 289.452 17.0892C289.691 17.0892 290.035 17.0065 290.207 17.0065C291.133 17.0065 286.362 20.32 286.362 23.4934C286.362 24.7729 287.495 25.7214 289.073 25.7214C291.063 25.7214 292.403 25.0244 294.052 23.8021L294.258 23.9963C293.195 24.8589 290.655 27.3639 286.947 27.3639C285.162 27.3639 284.2 26.3612 284.2 24.913L284.204 24.9098ZM290.21 14.2182C290.448 13.0214 291.445 13.8012 292.167 13.7185C293.027 13.6071 293.265 13.467 293.781 12.7445C293.883 12.5503 293.918 12.4389 294.02 12.493C294.707 13.0501 293.367 15.1667 291.925 15.3036C291.066 15.3864 290.073 14.858 290.21 14.2182Z" fill="#FA2935"/>
<path d="M286.95 28.9935C284.471 28.9935 282.758 27.523 282.587 25.2917C281.95 25.7723 281.056 25.7278 280.473 25.1771L280.266 24.983C279.929 24.6647 279.744 24.2158 279.754 23.7511C279.766 23.2864 279.973 22.8504 280.327 22.5512C281.88 21.227 283.446 19.6833 284.7 18.442C287.075 16.0961 287.8 15.3768 288.812 15.3672C288.574 14.9089 288.497 14.3932 288.602 13.8871C288.787 12.98 289.264 12.5057 289.634 12.2638C290.455 11.7323 291.333 11.9296 291.808 12.0346C291.884 12.0506 291.957 12.0728 292.03 12.0824C292.139 12.0665 292.209 12.0537 292.25 12.0442C292.276 12.0124 292.317 11.9614 292.381 11.8787C292.537 11.5859 292.833 11.1116 293.463 10.9142C293.883 10.7837 294.408 10.841 294.793 11.0511C294.882 11.0989 294.965 11.1561 295.045 11.2198C295.764 11.8023 296.012 12.7635 295.704 13.7853C295.277 15.1985 293.803 16.7614 292.078 16.9269C292.04 16.9301 292.002 16.9332 291.967 16.9364C292.053 17.7735 291.432 18.4324 290.684 19.2313C289.745 20.2308 287.998 22.0928 287.998 23.4838C287.998 23.8721 288.539 24.0758 289.073 24.0758C290.639 24.0758 291.648 23.5379 293.074 22.4779C293.711 22.0037 294.596 22.0578 295.172 22.6021L295.379 22.7962C295.723 23.1209 295.907 23.5761 295.888 24.0472C295.869 24.5182 295.649 24.9575 295.283 25.2535C295.185 25.3331 295.073 25.4286 294.946 25.5368C293.625 26.6572 290.878 28.9871 286.944 28.9871L286.95 28.9935Z" fill="#FA2935"/>
<path d="M304.524 25.9126C304.524 24.3275 308.334 21.4883 308.334 19.2029C308.334 18.4518 307.786 18.0348 306.653 18.0348C303.734 18.0348 301.471 20.4284 299.857 22.6278C297.454 25.8012 298.072 27.0267 297.352 27.0267C296.907 27.0267 296.665 26.9153 296.047 26.9153C295.532 26.9153 295.156 27.0267 294.641 27.0267C293.406 27.0267 301.401 20.4857 301.401 18.4518C299.581 19.7058 297.419 21.988 294.949 23.9901L294.742 23.796C298.209 20.8453 301.538 17.0035 302.156 17.0035C302.566 17.0035 302.499 17.0863 303.012 17.0863C303.391 17.0863 303.731 17.0035 304.008 17.0035C304.591 17.0035 303.562 17.9234 303.184 18.3945C304.11 17.9775 306.857 16.6693 309.19 16.6693C310.425 16.6693 311.558 17.1436 311.558 18.1717C311.558 20.1196 306.787 23.4331 306.787 25.5211C306.787 25.9954 307.334 26.2723 308.092 26.2723C310.597 26.2723 313.137 24.0442 313.516 23.796L313.754 23.9901C313.344 24.353 310.253 27.3577 306.376 27.3577C305.313 27.3577 304.524 26.9121 304.524 25.9094V25.9126Z" fill="#FA2935"/>
<path d="M306.376 28.9937C304.291 28.9937 302.888 27.7555 302.888 25.9126C302.888 24.6171 303.817 23.4585 304.893 22.1185C305.469 21.3992 306.284 20.387 306.583 19.6676C304.855 19.6995 303.085 20.9854 301.172 23.5922C299.927 25.2346 299.615 26.2277 299.428 26.8229C299.269 27.3258 298.848 28.6595 297.349 28.6595C297.025 28.6595 296.773 28.6213 296.573 28.5927C296.391 28.5672 296.261 28.5481 296.044 28.5481C295.86 28.5481 295.704 28.5704 295.544 28.5927C295.299 28.6245 294.997 28.6627 294.637 28.6627C293.905 28.6627 293.281 28.2585 293.008 27.6059C292.661 26.7784 292.864 26.1609 293.752 25.1169L293.616 24.9864C293.278 24.6681 293.094 24.2193 293.103 23.7577C293.116 23.293 293.323 22.857 293.676 22.5546C295.258 21.205 296.843 19.6358 298.116 18.3753C300.446 16.0677 301.146 15.3706 302.146 15.3706C302.483 15.3706 302.693 15.4088 302.862 15.4438C303.05 15.4789 303.215 15.4375 303.375 15.4184C303.601 15.3897 303.811 15.3674 303.998 15.3674C304.463 15.3674 304.886 15.5234 305.205 15.7971C306.411 15.3865 307.824 15.0332 309.18 15.0332C311.536 15.0332 313.181 16.3223 313.181 18.1716C313.181 19.7536 311.851 21.24 310.441 22.8156C310.046 23.258 309.451 23.9201 309.008 24.5026C310.383 24.127 311.755 23.0734 312.268 22.6787C312.421 22.5609 312.532 22.4782 312.599 22.4336C313.194 22.0358 313.977 22.074 314.531 22.5259L314.77 22.7201C315.142 23.0225 315.365 23.4745 315.374 23.9583C315.384 24.4389 315.18 24.9004 314.821 25.2187L314.75 25.2824C312.077 27.711 309.177 28.9937 306.363 28.9937H306.376Z" fill="#FA2935"/>
<path d="M314.203 24.3243C314.203 20.8995 318.701 16.6693 322.956 16.6693C324.433 16.6693 325.394 17.2804 325.394 18.1175C325.394 18.8974 324.296 19.9 323.198 20.5398L322.924 20.3997C323.37 20.0655 323.679 19.76 323.679 19.343C323.679 18.7319 322.787 18.1175 321.447 18.1175C318.564 18.1175 316.196 19.8427 316.196 22.4877C316.196 24.2702 317.809 25.3556 320.349 25.3556C321.584 25.3556 323.437 24.9641 325.086 23.796L325.324 23.9901C322.886 25.9954 320.623 27.3577 317.841 27.3577C315.371 27.3577 314.203 26.0208 314.203 24.3243Z" fill="#FA2935"/>
<path d="M317.841 28.9937C314.2 28.9937 312.57 26.6479 312.57 24.3243C312.57 19.8109 317.908 15.0332 322.956 15.0332C325.754 15.0332 327.027 16.6311 327.027 18.1143C327.027 19.9923 324.923 21.4214 324.019 21.9466C323.538 22.2236 322.953 22.2426 322.46 21.9944L322.186 21.8543C321.683 21.5997 321.345 21.1 321.295 20.5398C321.269 20.266 321.317 19.9923 321.422 19.7472C319.633 19.7568 317.828 20.6957 317.828 22.4846C317.828 23.6591 319.926 23.7195 320.346 23.7195C321.323 23.7195 322.829 23.3885 324.137 22.4623C324.735 22.0358 325.541 22.0612 326.11 22.5259L326.349 22.7201C326.731 23.0288 326.954 23.4936 326.954 23.9837C326.954 24.4739 326.737 24.9386 326.359 25.2506C323.997 27.1922 321.33 28.9905 317.838 28.9905L317.841 28.9937Z" fill="#FA2935"/>
<path d="M325.633 23.8501C325.633 20.231 331.193 16.6693 335.07 16.6693C336.821 16.6693 337.337 17.3918 337.337 18.143C337.337 20.1737 333.835 21.3705 327.418 23.7673C327.59 24.6299 328.723 25.5498 330.815 25.5498C333.148 25.5498 335.14 25.0214 336.719 23.796L336.958 23.9901C336.098 24.7986 333.183 27.3577 329.338 27.3577C327.005 27.3577 325.633 25.5211 325.633 23.8501ZM334.797 19.1202C334.797 18.4804 334.246 18.1748 333.218 18.1748C330.13 18.1748 327.555 20.8453 327.383 23.2708C331.365 21.6284 334.797 20.0401 334.797 19.1234V19.1202Z" fill="#FA2935"/>
<path d="M329.341 28.9937C326.044 28.9937 324 26.3264 324 23.85C324 18.9833 330.7 15.0332 335.074 15.0332C337.951 15.0332 338.973 16.7075 338.973 18.143C338.973 20.7371 336.566 22.0326 331.773 23.8787C333.393 23.7546 334.692 23.3026 335.72 22.5037C336.318 22.0389 337.162 22.0485 337.75 22.5259L337.989 22.7201C338.355 23.0161 338.575 23.4585 338.594 23.9296C338.613 24.4007 338.425 24.8559 338.081 25.1805C336.57 26.6033 333.422 28.9937 329.341 28.9937Z" fill="#FA2935"/>
<path d="M338.403 25.9952C338.403 24.964 340.462 23.6844 341.732 23.6844C343.413 23.6844 343.413 25.2982 344.511 26.078C345.336 25.6037 346.364 24.687 346.364 23.8245C346.364 22.0134 344.202 21.1794 342.21 20.5683C340.803 21.5996 339.087 22.7677 337.646 23.9932L337.439 23.799C338.846 22.5195 340.459 21.4054 341.557 20.3455C340.666 19.9826 339.979 19.537 339.979 18.7317C339.979 17.3949 341.421 16.6723 343.066 16.6723C344.301 16.6723 344.884 17.1721 344.884 17.8405C344.884 18.4262 343.957 19.2601 342.687 20.2054C345.09 21.1794 349.311 21.3449 349.311 23.1847C349.311 24.13 347.494 25.5496 345.434 26.4122C347.392 26.635 350.651 24.7698 351.612 23.7958L351.819 23.99C351.409 24.3528 348.079 27.3576 344.715 27.3576C344.097 27.3576 343.652 27.2175 343.273 27.0233C342.414 27.2175 341.315 27.3576 340.526 27.3576C338.912 27.3576 338.397 26.7719 338.397 25.9921L338.403 25.9952ZM342.487 26.4122C341.834 25.6324 341.389 24.6298 340.634 24.6298C339.982 24.6298 339.469 24.9926 339.469 25.4096C339.469 25.9666 340.704 26.3836 342.49 26.4122H342.487ZM342.006 19.8712C342.452 19.3429 342.831 18.7858 342.831 18.2575C342.831 17.7291 342.42 17.4522 341.904 17.4522C341.322 17.4522 341.045 17.9264 341.045 18.4835C341.045 19.0946 341.424 19.5402 342.006 19.8744V19.8712Z" fill="#FA2935"/>
<path d="M344.718 28.9936C344.142 28.9936 343.61 28.9076 343.107 28.7294C342.229 28.8949 341.264 28.9936 340.532 28.9936C336.952 28.9936 336.77 26.495 336.77 25.9952C336.77 25.7979 336.796 25.6005 336.843 25.4127C336.732 25.3491 336.624 25.2695 336.528 25.1804L336.321 24.9862C335.99 24.6743 335.806 24.2382 335.809 23.7831C335.812 23.3279 336.006 22.8982 336.344 22.5895C337.063 21.9338 337.808 21.3417 338.527 20.7688C338.658 20.6638 338.788 20.5619 338.919 20.4569C338.584 20.0144 338.352 19.4511 338.352 18.7317C338.352 16.5577 340.294 15.0363 343.076 15.0363C345.46 15.0363 346.529 16.4432 346.529 17.8405C346.529 18.407 346.329 18.9227 345.953 19.4351C347.965 19.9221 350.301 20.5492 350.839 22.3603C351.444 22.0293 352.214 22.112 352.742 22.6086L352.949 22.8027C353.283 23.1178 353.468 23.5603 353.462 24.0186C353.452 24.4801 353.251 24.913 352.908 25.2186C351.291 26.6446 348.124 28.9936 344.724 28.9936H344.718ZM344.412 23.3056C344.524 23.4393 344.626 23.573 344.715 23.7035C344.677 23.573 344.575 23.4425 344.412 23.3056Z" fill="#FA2935"/>
<path d="M353.264 25.9952C353.264 24.964 355.324 23.6844 356.594 23.6844C358.274 23.6844 358.274 25.2982 359.372 26.078C360.197 25.6037 361.225 24.687 361.225 23.8245C361.225 22.0134 359.064 21.1794 357.071 20.5683C355.664 21.5996 353.949 22.7677 352.507 23.9932L352.3 23.799C353.707 22.5195 355.32 21.4054 356.419 20.3455C355.527 19.9826 354.84 19.537 354.84 18.7317C354.84 17.3949 356.282 16.6723 357.927 16.6723C359.162 16.6723 359.745 17.1721 359.745 17.8405C359.745 18.4262 358.819 19.2601 357.549 20.2054C359.952 21.1794 364.172 21.3449 364.172 23.1847C364.172 24.13 362.352 25.5496 360.295 26.4122C362.253 26.635 365.512 24.7698 366.474 23.7958L366.68 23.99C366.27 24.3528 362.94 27.3576 359.576 27.3576C358.959 27.3576 358.513 27.2175 358.134 27.0233C357.275 27.2175 356.177 27.3576 355.387 27.3576C353.774 27.3576 353.258 26.7719 353.258 25.9921L353.264 25.9952ZM357.351 26.4122C356.699 25.6324 356.253 24.6298 355.499 24.6298C354.846 24.6298 354.331 24.9926 354.331 25.4096C354.331 25.9666 355.566 26.3836 357.351 26.4122ZM356.871 19.8712C357.316 19.3429 357.695 18.7858 357.695 18.2575C357.695 17.7291 357.284 17.4522 356.769 17.4522C356.186 17.4522 355.913 17.9264 355.913 18.4835C355.913 19.0946 356.291 19.5402 356.874 19.8744L356.871 19.8712Z" fill="#FA2935"/>
<path d="M359.579 28.9936C359.003 28.9936 358.472 28.9076 357.969 28.7294C357.09 28.8949 356.126 28.9936 355.394 28.9936C351.813 28.9936 351.631 26.495 351.631 25.9952C351.631 25.7979 351.657 25.6037 351.701 25.4127C351.59 25.3491 351.485 25.2727 351.386 25.1804L351.179 24.9862C350.848 24.6743 350.664 24.2382 350.667 23.7831C350.67 23.3279 350.864 22.895 351.202 22.5895C351.921 21.9338 352.666 21.3417 353.385 20.7688C353.516 20.6638 353.649 20.5587 353.777 20.4569C353.442 20.0144 353.21 19.4511 353.21 18.7317C353.21 16.5577 355.152 15.0363 357.934 15.0363C360.318 15.0363 361.387 16.4432 361.387 17.8405C361.387 18.407 361.187 18.9227 360.811 19.4351C362.823 19.9221 365.159 20.5492 365.7 22.3603C366.308 22.0293 367.078 22.112 367.603 22.6086L367.81 22.8027C368.145 23.1178 368.329 23.5603 368.323 24.0186C368.316 24.477 368.113 24.913 367.769 25.2154C366.152 26.6414 362.985 28.9904 359.586 28.9904L359.579 28.9936ZM359.274 23.3056C359.385 23.4393 359.487 23.573 359.576 23.7035C359.538 23.573 359.436 23.4425 359.274 23.3056Z" fill="#FA2935"/>
</svg>
