<svg width="133" height="103" viewBox="0 0 133 103" fill="none" xmlns="http://www.w3.org/2000/svg">
<g clip-path="url(#clip0_149_521)">
<path d="M32.2844 12.9358C14.4542 12.9358 -0.000244141 30.2005 -0.000244141 51.4992C-0.000244141 72.7979 14.4542 90.0643 32.2844 90.0643C50.1145 90.0643 64.5673 72.7979 64.5673 51.4992C64.5673 30.2005 50.1145 12.9358 32.2844 12.9358ZM47.2545 57.5509L47.853 58.622C46.1121 60.4292 44.6448 61.7092 43.451 62.4586C42.2589 63.2097 41.4199 63.5396 40.9408 63.4517C40.5429 63.3771 40.4218 62.9112 40.581 62.0524C40.9773 59.9136 42.7579 56.8313 45.9198 52.8074C48.6074 49.3156 49.9918 47.3492 50.0731 46.9082C50.1427 46.5302 50.0449 46.3146 49.7812 46.2649C49.317 46.1803 47.9143 47.2232 45.5749 49.3935C43.2338 51.5655 40.2627 54.6958 36.6598 58.7828C32.5944 63.3224 29.7791 66.5854 28.2106 68.5683C30.3677 69.2365 32.1186 69.9063 33.4599 70.5795C34.8012 71.251 36.7344 72.2972 39.2596 73.7148C41.783 75.1324 43.6682 76.0393 44.9167 76.4356C42.9619 78.2859 41.6189 79.5426 40.8877 80.2025C40.1565 80.8624 39.6177 81.2437 39.2745 81.3449C38.729 81.5123 37.9879 81.3913 37.0528 80.9801C36.116 80.569 34.6487 79.8378 32.6475 78.7849C30.6479 77.7338 28.7644 76.8152 26.997 76.0343C25.2279 75.2517 23.5832 74.7195 22.0578 74.4377C21.194 74.2768 20.4313 74.2603 19.7648 74.3846C19.0983 74.5106 18.1632 74.7444 16.9578 75.0909C15.7541 75.4358 14.9284 75.5668 14.4807 75.4839C13.8341 75.3645 13.5688 74.9848 13.6882 74.3448C13.7545 73.985 13.9386 73.597 14.2387 73.1759C14.9815 72.2176 15.6994 71.3073 16.3908 70.4419C17.0821 69.5781 17.7686 68.9298 18.4483 68.4987C19.1298 68.066 20.045 67.8007 21.194 67.7029C22.3446 67.6067 23.8169 67.7145 25.6109 68.0245C27.947 65.1296 30.1638 62.4553 32.2611 59.9998C31.6328 60.3397 30.9762 60.6232 30.2865 60.8454C29.2154 61.1637 27.8973 61.4058 26.3321 61.5716C24.767 61.7357 23.0957 61.7838 21.3167 61.7125C19.5376 61.6412 17.8597 61.4605 16.2846 61.1687C13.3831 60.6315 11.11 59.8705 9.46694 58.8839C7.82221 57.8974 7.12419 56.7335 7.37289 55.3955C7.48397 54.7953 7.95485 53.9166 8.78716 52.7576C9.61948 51.5987 10.4816 50.8741 11.3753 50.5857C12.1512 50.3767 12.8758 50.3104 13.5489 50.3834C14.2204 50.4563 14.5355 50.6122 14.4907 50.8509C14.4791 50.9123 14.4426 50.967 14.3829 51.0184C14.3216 51.0681 14.2536 51.1079 14.1806 51.1361C14.106 51.1626 14.0331 51.1908 13.9601 51.219C13.5987 51.3168 13.3052 51.3914 13.0814 51.4445C12.8576 51.4959 12.6752 51.5539 12.5342 51.6219C12.3933 51.6882 12.3088 51.8026 12.2789 51.9618C12.201 52.3813 13.8772 52.9085 17.3109 53.5435C20.2953 54.0973 22.7641 54.419 24.7189 54.5135C26.6737 54.6063 28.4444 54.4471 30.0295 54.0376C30.749 53.8519 31.4504 53.6082 32.1351 53.3048C33.6041 52.6548 34.1479 50.453 33.1465 49.1498C33.1399 49.1399 33.1333 49.1316 33.1266 49.1233C32.4336 48.2296 31.6112 47.462 30.6579 46.8203C29.7045 46.1787 28.6848 45.6448 27.5988 45.2154C24.3591 43.9968 21.4758 42.1083 18.9491 39.5533C18.7302 39.3461 18.5263 38.9581 18.3406 38.3861C18.1549 37.8141 18.1068 37.2885 18.1963 36.8077C18.5213 35.0502 19.0933 33.3308 19.909 31.6529C20.7264 29.9734 21.6085 28.7067 22.5552 27.8478C24.0905 26.4153 26.5676 25.3757 29.9897 24.7275C33.4101 24.0792 37.1191 24.124 41.1149 24.8634C43.5024 25.3061 45.3063 25.8682 46.5266 26.5479C47.7469 27.2294 48.2725 28.0285 48.1017 28.9487C47.8248 30.4476 47.4401 31.575 46.9477 32.3311C46.457 33.0888 45.9911 33.5663 45.5517 33.7636C45.1123 33.9609 44.3596 34.1996 43.2968 34.4782C42.171 34.7235 41.1779 35.0154 40.319 35.3536C39.4585 35.6902 38.7141 36.0284 38.0857 36.3666C37.4573 36.7049 37.076 36.8607 36.9433 36.8375C36.7775 36.806 36.7096 36.7115 36.7394 36.5507C36.8024 36.2108 37.192 35.7515 37.9083 35.1696C38.6246 34.5893 39.4618 34.12 40.4202 33.7586C41.4398 33.3491 41.9638 33.0639 41.9936 32.9031C42.0417 32.6444 41.5592 32.4189 40.5478 32.2332C37.4805 31.6645 34.584 31.4689 31.8599 31.648C29.1342 31.8254 26.9207 32.3145 25.2213 33.1169C23.5202 33.9178 22.5668 34.8777 22.3596 35.9969C22.2302 36.6966 22.4491 37.2503 23.0178 37.6549C23.5848 38.0594 24.8681 38.7989 26.8643 39.87C28.8606 40.9427 30.6147 42.0735 32.1268 43.2639C34.3021 44.9484 35.8457 46.5667 36.7593 48.1202C37.6712 49.6754 37.9746 51.282 37.6662 52.94C37.585 53.386 37.4656 53.8254 37.3131 54.2581C39.6973 51.6385 41.8676 49.3919 43.824 47.52C46.2315 45.217 48.2841 43.5126 49.9802 42.41C51.6763 41.3091 52.9464 40.8366 53.792 40.9925C54.3888 41.1035 54.8166 41.3887 55.0736 41.8496C55.3322 42.3106 55.3936 42.9008 55.2609 43.6204C54.8166 46.0195 52.1472 50.6619 47.2545 57.5509Z" fill="#FA2935"/>
<path d="M106.373 13.7117L106.369 18.9477L106.344 19.5727C106.343 19.6275 106.404 19.77 106.449 19.7717L106.704 19.7783L107.145 19.8463C107.248 19.8612 107.346 20.2111 107.253 20.2873L106.315 21.0732L106.353 22.9335C106.361 23.3198 106.321 23.93 106.469 24.2433C106.709 24.7606 106.754 25.2365 106.703 25.7554L108.13 28.2623C109.02 30.2967 109.765 32.3244 110.324 34.4417L111.919 35.6272C112.469 36.035 112.908 36.7165 113.543 37.0182C114.707 37.5703 115.938 37.9401 116.732 38.9962C117.485 40.0756 117.193 41.145 117.231 42.1713C117.674 43.5342 118.012 44.8937 118.09 46.3561C118.148 47.4504 117.821 48.5198 117.68 49.6141L117.286 52.6648C117.098 54.1139 116.682 55.5447 115.745 56.697C115.133 57.4498 114.636 58.2042 114.122 59.0282L112.341 61.8916L110.662 64.8925C109.823 66.3947 108.788 67.7642 107.666 69.0674L106.177 70.5712L106.14 75.5021L106.101 81.1426L106.087 89.3547C120.953 85.9027 132.174 70.2661 132.174 51.4992C132.174 32.7323 121.097 17.298 106.373 13.7117ZM109.339 49.6854L109.654 48.795C109.357 48.3822 109.276 48.0572 109.405 47.651L108.223 45.29C107.712 44.0631 107.334 42.8925 106.485 41.7949C106.346 42.0005 106.273 42.2343 106.273 42.4731L106.265 52.1375C106.923 51.4942 107.646 50.909 108.505 50.6967C109.045 50.5624 109.364 50.3917 109.339 49.6854ZM67.6069 51.4992C67.6069 72.7979 82.0613 90.0643 99.8915 90.0643C101.281 90.0643 102.65 89.9599 103.995 89.7559L104.055 72.6901C103.456 73.1925 103.033 73.4876 102.408 73.6551L101.687 74.5388C101.208 75.1257 100.472 75.4109 99.7605 75.3811C99.0824 75.3529 98.4921 74.9583 97.9831 74.4526L96.2571 72.7432C94.9622 70.9675 93.6508 69.2332 91.9447 67.8488L90.0347 66.2985L88.7298 65.3419C88.574 65.5176 88.4314 65.6735 88.3385 65.627L87.9738 65.4463L87.7848 65.3518C87.745 65.3336 87.7317 65.5043 87.7466 65.5475L87.8362 65.8194C87.8561 65.8757 87.6156 65.9238 87.5792 65.8774L87.4482 65.7149C87.2625 65.4861 87.0171 64.8925 86.6921 64.8096L85.1336 64.4101C85.0673 64.3935 84.9347 64.3321 84.8899 64.3073C84.8451 64.2824 85.0043 64.1713 85.054 64.173L85.2149 64.1779L86.0687 64.2194C86.2644 64.2227 86.2395 64.1547 86.0505 64.1149C85.5365 63.712 85.0888 63.4318 84.5417 63.1632L82.9169 62.3674L79.7683 60.5685C79.3041 60.3032 78.8498 60.2203 78.2894 60.396C76.958 60.8155 76.5966 59.8207 75.9698 58.7745C75.751 58.4081 75.3995 57.9173 75.3846 57.4896C75.7261 56.2544 76.6596 55.3905 77.7953 54.9097C78.1601 55.1004 78.4237 55.2927 78.7089 55.5398C79.7285 56.4235 81.6734 57.8245 82.766 57.3337C82.7096 56.2229 81.7098 56.4434 81.5391 55.8846C81.3716 55.3391 81.1577 54.8848 80.783 54.477L79.8313 53.4391C79.7633 53.3645 79.7169 53.1439 79.7252 53.0561C79.7335 52.9699 80.0568 52.9864 80.1198 53.0461L80.9206 53.8171L81.1528 53.0163C81.8458 52.0314 82.8837 51.466 84.0858 51.3583C84.2781 51.5125 84.4837 51.7628 84.6246 51.9568L86.2014 54.1404L86.9839 54.7522C87.3703 55.0556 87.8047 55.1319 88.2672 54.9296C88.118 54.2233 87.9588 53.5883 87.6869 52.9583L86.7667 50.8294C86.7253 50.7332 86.6822 50.4447 86.7667 50.39C86.8513 50.3336 87.0586 50.3021 87.1298 50.3171C87.7748 51.6882 88.443 52.8787 89.2736 54.0956L90.4077 55.3889C91.4324 56.3024 91.8469 57.5973 91.1571 58.8922C91.3727 59.2371 91.6197 59.5936 91.9032 59.8671L93.2512 61.1736C93.296 61.5301 93.485 61.8418 93.8133 62.0143L95.9289 63.6524L97.7013 64.7118L98.8337 65.511L99.5483 66.0283L100.034 64.2724C100.326 63.2146 100.533 62.0491 101.122 61.1123C101.639 60.2883 101.959 59.5289 102.113 58.5358C102.259 57.5907 102.7 56.6423 103.28 55.873L104.148 54.7224L104.153 45.5304C103.458 47.001 103.763 49.4798 102.8 50.6304C102.491 50.9985 102.148 51.2489 102.055 51.7247C101.891 52.5802 101.523 53.3247 100.84 53.9348C100.896 53.4639 101.155 53.1771 101.309 52.8007L101.86 51.4528L101.142 51.7778L102.121 50.5624L102.405 48.853C102.458 48.5364 102.486 48.1368 102.675 47.9163C103.207 47.2962 103.212 46.6761 103.264 45.8902C103.304 45.2734 103.775 44.6086 103.804 43.9702L103.904 41.7386L103.46 43.2308L102.76 45.4458L102.055 48.5297L101.709 49.7749C101.574 50.259 100.941 50.6337 100.72 51.0731L100.099 52.3116L100.261 51.2489C100.351 50.6603 100.742 50.2723 101.055 49.8114C101.675 48.8995 101.738 47.7157 101.851 46.638L101.957 45.6398L102.675 43.9553C101.961 43.6021 101.768 43.0384 101.404 42.2774L101.289 43.2258C100.923 42.6554 100.944 42.0668 101.203 41.4484L101.4 40.9759C100.036 40.9112 98.8005 40.6459 98.1937 39.5732C98.0594 40.1469 98.1042 40.5282 98.1489 41.1035C97.7311 40.6061 97.7444 40.0209 97.6217 39.4024C97.4824 40.1436 97.1641 40.626 96.7993 41.2113L96.277 42.0519L96.229 41.8961L96.9154 39.986L96.3616 40.5912C96.4826 39.7937 96.5904 39.1222 96.5506 38.3131C96.3881 38.3662 96.2969 38.4109 96.2704 38.4905L96.151 38.847L96.0681 38.2982C95.9272 38.0595 95.7117 37.6566 95.8443 37.3266L96.4793 35.73C96.7065 35.1579 96.6451 34.1764 97.8621 33.5779C99.3427 32.8467 99.8235 31.9 100.303 31.7823L100.893 31.638L101.498 30.2934C101.495 28.6171 101.677 26.9459 102.372 25.3923L102.947 24.361C102.801 23.8404 102.631 23.2452 102.768 22.7511L103.431 20.3669C103.62 19.6888 104.332 19.2826 104.335 18.8465L104.37 13.3055C102.906 13.0618 101.41 12.9358 99.8898 12.9358C82.0597 12.9358 67.6052 30.2005 67.6052 51.4992H67.6069ZM103.14 42.5294L103.335 41.2992L103.193 41.0538C103.105 40.9029 102.879 41.8231 103.14 42.5294Z" fill="#FA2935"/>
</g>
<defs>
<clipPath id="clip0_149_521">
<rect width="132.174" height="103" fill="white"/>
</clipPath>
</defs>
</svg>
