<svg width="305" height="239" viewBox="0 0 305 239" fill="none" xmlns="http://www.w3.org/2000/svg">
<g clip-path="url(#clip0_149_524)">
<path d="M74.4987 29.9005C33.3545 29.9005 0 69.8073 0 119.038C0 168.269 33.3545 208.18 74.4987 208.18C115.643 208.18 148.994 168.269 148.994 119.038C148.994 69.8073 115.643 29.9005 74.4987 29.9005ZM109.043 133.027L110.424 135.502C106.407 139.68 103.021 142.638 100.266 144.37C97.5155 146.107 95.5796 146.869 94.4739 146.666C93.5557 146.494 93.2764 145.417 93.6437 143.432C94.5581 138.488 98.6671 131.363 105.963 122.062C112.165 113.991 115.36 109.446 115.547 108.426C115.708 107.553 115.482 107.054 114.874 106.939C113.803 106.744 110.566 109.155 105.167 114.171C99.7652 119.192 92.9091 126.427 84.5953 135.874C75.2141 146.367 68.7177 153.909 65.0983 158.493C70.0759 160.037 74.1161 161.586 77.2113 163.142C80.3064 164.694 84.7675 167.112 90.5944 170.389C96.4175 173.665 100.768 175.762 103.648 176.678C99.1377 180.955 96.0387 183.86 94.3515 185.385C92.6642 186.91 91.4208 187.792 90.6288 188.025C89.3701 188.412 87.6599 188.133 85.5021 187.182C83.3404 186.232 79.9545 184.542 75.3366 182.108C70.7225 179.678 66.3762 177.555 62.2978 175.75C58.2155 173.941 54.4201 172.711 50.9003 172.06C48.907 171.688 47.147 171.65 45.609 171.937C44.071 172.228 41.9132 172.769 39.1317 173.57C36.3541 174.367 34.4487 174.669 33.4157 174.478C31.9236 174.202 31.3115 173.324 31.5869 171.845C31.74 171.013 32.1647 170.117 32.8572 169.143C34.5712 166.928 36.2278 164.824 37.8232 162.823C39.4186 160.827 41.0026 159.328 42.5712 158.332C44.1437 157.332 46.2556 156.718 48.907 156.492C51.5622 156.27 54.9596 156.519 59.0993 157.236C64.49 150.544 69.6053 144.363 74.4451 138.687C72.9951 139.473 71.48 140.128 69.8884 140.642C67.4169 141.377 64.3752 141.937 60.7636 142.32C57.1519 142.7 53.2953 142.811 49.1901 142.646C45.0849 142.481 41.213 142.063 37.5784 141.389C30.883 140.147 25.6376 138.388 21.8461 136.108C18.0508 133.828 16.4401 131.137 17.0139 128.044C17.2703 126.657 18.3569 124.626 20.2775 121.947C22.1981 119.268 24.1876 117.593 26.2498 116.927C28.0403 116.444 29.7122 116.29 31.2656 116.459C32.8151 116.628 33.542 116.988 33.4387 117.54C33.4119 117.682 33.3278 117.808 33.19 117.927C33.0485 118.042 32.8916 118.134 32.7233 118.199C32.5511 118.26 32.3827 118.325 32.2144 118.391C31.3803 118.617 30.7032 118.789 30.1867 118.912C29.6702 119.031 29.2493 119.165 28.9241 119.322C28.5989 119.475 28.4038 119.74 28.3349 120.108C28.1551 121.077 32.0231 122.296 39.9466 123.764C46.8333 125.044 52.5301 125.787 57.0409 126.006C61.5517 126.22 65.6378 125.852 69.2954 124.906C70.9558 124.476 72.5742 123.913 74.1543 123.212C77.5441 121.709 78.799 116.62 76.4882 113.608C76.4729 113.585 76.4576 113.566 76.4423 113.546C74.843 111.481 72.9453 109.706 70.7454 108.223C68.5455 106.74 66.1926 105.506 63.6866 104.514C56.2107 101.697 49.5574 97.3316 43.7267 91.4259C43.2216 90.9468 42.751 90.05 42.3225 88.7279C41.894 87.4057 41.7831 86.1908 41.9897 85.0794C42.7396 81.0171 44.0595 77.0429 45.9419 73.1645C47.8281 69.2823 49.8635 66.3543 52.0481 64.3691C55.5909 61.0579 61.3068 58.655 69.2036 57.1565C77.0965 55.6581 85.6551 55.7616 94.8756 57.4708C100.385 58.4941 104.548 59.7932 107.363 61.3645C110.179 62.9396 111.392 64.7869 110.998 66.9138C110.359 70.3783 109.472 72.9844 108.335 74.7319C107.203 76.4833 106.128 77.5871 105.114 78.0431C104.1 78.4992 102.363 79.051 99.9106 79.6949C97.3128 80.2621 95.021 80.9366 93.0392 81.7184C91.0535 82.4964 89.3357 83.2782 87.8856 84.06C86.4356 84.8418 85.5556 85.202 85.2496 85.1484C84.867 85.0756 84.7101 84.8571 84.779 84.4854C84.9244 83.6997 85.8234 82.6382 87.4763 81.293C89.1291 79.9517 91.0612 78.8671 93.2726 78.0316C95.6255 77.085 96.8345 76.4258 96.9034 76.0541C97.0143 75.4563 95.901 74.9351 93.5671 74.5058C86.4892 73.1913 79.8053 72.7391 73.5192 73.153C67.2294 73.563 62.1218 74.6936 58.2002 76.5485C54.2748 78.3995 52.0748 80.6185 51.5966 83.2054C51.2982 84.8226 51.8032 86.1027 53.1155 87.0378C54.424 87.9729 57.3853 89.6821 61.9917 92.1579C66.5981 94.6374 70.646 97.2511 74.1352 100.003C79.1548 103.896 82.7168 107.637 84.8249 111.228C86.9291 114.823 87.6293 118.536 86.9177 122.369C86.7302 123.4 86.4547 124.415 86.1027 125.415C91.6044 119.36 96.6126 114.167 101.127 109.841C106.682 104.517 111.419 100.578 115.333 98.0291C119.247 95.4844 122.178 94.3921 124.129 94.7524C125.506 95.0092 126.493 95.6683 127.086 96.7337C127.683 97.7991 127.825 99.1635 127.519 100.827C126.493 106.372 120.333 117.103 109.043 133.027Z" fill="#B5B5B5"/>
<path d="M245.461 31.6941L245.453 43.7968L245.396 45.2416C245.392 45.3681 245.534 45.6977 245.637 45.7015L246.226 45.7168L247.244 45.874C247.481 45.9085 247.707 46.7171 247.493 46.8934L245.327 48.7099L245.415 53.0099C245.434 53.9029 245.342 55.3132 245.683 56.0375C246.238 57.2332 246.341 58.3331 246.222 59.5326L249.517 65.3272C251.571 70.0296 253.289 74.7166 254.578 79.6106L258.259 82.3508C259.529 83.2935 260.543 84.8686 262.008 85.5661C264.694 86.8423 267.533 87.697 269.365 90.1382C271.102 92.6331 270.429 95.105 270.517 97.4772C271.539 100.627 272.319 103.77 272.499 107.15C272.633 109.68 271.879 112.151 271.554 114.681L270.643 121.733C270.211 125.082 269.251 128.389 267.089 131.053C265.677 132.793 264.529 134.537 263.343 136.441L259.234 143.06L255.359 149.996C253.423 153.469 251.035 156.634 248.445 159.646L245.01 163.122L244.925 174.52L244.834 187.558L244.803 206.54C279.106 198.561 305 162.417 305 119.038C305 75.6594 279.439 39.9836 245.461 31.6941ZM252.306 114.846L253.033 112.788C252.348 111.833 252.16 111.082 252.459 110.143L249.731 104.686C248.552 101.85 247.68 99.1443 245.721 96.6073C245.4 97.0825 245.231 97.6229 245.231 98.1747L245.212 120.514C246.731 119.027 248.399 117.674 250.381 117.183C251.628 116.873 252.363 116.478 252.306 114.846ZM156.007 119.038C156.007 168.269 189.361 208.18 230.505 208.18C233.712 208.18 236.872 207.939 239.975 207.467L240.112 168.02C238.731 169.181 237.756 169.864 236.313 170.251L234.649 172.293C233.543 173.65 231.845 174.309 230.203 174.24C228.638 174.175 227.276 173.263 226.102 172.094L222.119 168.143C219.131 164.038 216.105 160.03 212.168 156.83L207.76 153.246L204.749 151.035C204.39 151.441 204.061 151.802 203.846 151.694L203.005 151.276L202.568 151.058C202.477 151.016 202.446 151.411 202.48 151.51L202.687 152.139C202.733 152.269 202.178 152.38 202.094 152.273L201.792 151.897C201.363 151.368 200.797 149.996 200.047 149.805L196.451 148.881C196.298 148.843 195.992 148.701 195.888 148.644C195.785 148.586 196.152 148.329 196.267 148.333L196.638 148.345L198.609 148.44C199.06 148.448 199.003 148.291 198.566 148.199C197.38 147.268 196.347 146.62 195.085 145.999L191.335 144.16L184.07 140.002C182.999 139.388 181.95 139.197 180.657 139.603C177.585 140.573 176.751 138.273 175.305 135.855C174.8 135.008 173.989 133.874 173.954 132.885C174.742 130.03 176.896 128.033 179.517 126.922C180.359 127.362 180.967 127.807 181.625 128.378C183.978 130.421 188.466 133.659 190.987 132.525C190.857 129.957 188.55 130.467 188.156 129.175C187.77 127.914 187.276 126.864 186.411 125.921L184.215 123.522C184.059 123.35 183.951 122.84 183.971 122.637C183.99 122.438 184.736 122.476 184.881 122.614L186.729 124.396L187.265 122.545C188.864 120.269 191.259 118.962 194.033 118.713C194.477 119.069 194.951 119.648 195.276 120.096L198.915 125.143L200.721 126.558C201.612 127.259 202.614 127.435 203.682 126.968C203.337 125.335 202.97 123.867 202.343 122.411L200.219 117.49C200.124 117.268 200.024 116.601 200.219 116.474C200.414 116.344 200.893 116.271 201.057 116.306C202.545 119.475 204.087 122.227 206.004 125.04L208.621 128.029C210.986 130.141 211.942 133.134 210.35 136.127C210.848 136.924 211.418 137.748 212.072 138.38L215.183 141.4C215.286 142.224 215.722 142.945 216.48 143.343L221.361 147.13L225.451 149.579L228.064 151.426L229.713 152.622L230.834 148.563C231.508 146.118 231.986 143.424 233.344 141.259C234.538 139.354 235.276 137.599 235.632 135.303C235.969 133.119 236.987 130.926 238.326 129.148L240.327 126.489L240.338 105.242C238.735 108.641 239.439 114.37 237.216 117.03C236.505 117.881 235.713 118.46 235.498 119.56C235.12 121.537 234.27 123.258 232.694 124.668C232.824 123.58 233.421 122.917 233.777 122.047L235.047 118.931L233.39 119.682L235.651 116.873L236.306 112.922C236.428 112.19 236.493 111.266 236.929 110.757C238.157 109.323 238.169 107.89 238.287 106.073C238.379 104.648 239.466 103.111 239.535 101.635L239.764 96.477L238.739 99.9261L237.124 105.046L235.498 112.174L234.699 115.053C234.389 116.172 232.927 117.038 232.418 118.053L230.984 120.916L231.359 118.46C231.565 117.099 232.468 116.202 233.191 115.137C234.622 113.029 234.768 110.293 235.028 107.802L235.273 105.495L236.929 101.601C235.28 100.785 234.836 99.4816 233.995 97.7225L233.731 99.9146C232.885 98.5963 232.935 97.2358 233.532 95.8063L233.987 94.7141C230.838 94.5646 227.988 93.9514 226.588 91.4719C226.278 92.7979 226.381 93.6793 226.484 95.0092C225.52 93.8595 225.551 92.5066 225.268 91.0771C224.946 92.7902 224.212 93.9054 223.37 95.2583L222.165 97.2013L222.054 96.8411L223.638 92.4261L222.36 93.825C222.639 91.9816 222.888 90.4295 222.796 88.5592C222.421 88.6819 222.211 88.7854 222.15 88.9693L221.874 89.7933L221.683 88.5248C221.358 87.9729 220.86 87.0416 221.166 86.279L222.632 82.5884C223.156 81.2662 223.014 78.9974 225.822 77.6139C229.239 75.9238 230.349 73.7355 231.454 73.4634L232.816 73.13L234.213 70.0219C234.205 66.1474 234.626 62.2843 236.229 58.6933L237.557 56.3096C237.22 55.1062 236.826 53.7304 237.143 52.5883L238.674 47.0773C239.11 45.5099 240.751 44.571 240.759 43.563L240.839 30.7552C237.461 30.1918 234.01 29.9005 230.502 29.9005C189.357 29.9005 156.003 69.8073 156.003 119.038H156.007ZM238 98.305L238.452 95.4614L238.123 94.8942C237.92 94.5455 237.4 96.6724 238 98.305Z" fill="#B5B5B5"/>
</g>
<defs>
<clipPath id="clip0_149_524">
<rect width="305" height="238.08" fill="white"/>
</clipPath>
</defs>
</svg>
