<svg width="115" height="90" viewBox="0 0 115 90" fill="none" xmlns="http://www.w3.org/2000/svg">
<g clip-path="url(#clip0_149_521)">
<path d="M28.0897 11.2549C12.5763 11.2549 0 26.2764 0 44.8076C0 63.3388 12.5763 78.3617 28.0897 78.3617C43.603 78.3617 56.1779 63.3388 56.1779 44.8076C56.1779 26.2764 43.603 11.2549 28.0897 11.2549ZM41.1146 50.073L41.6354 51.0049C40.1207 52.5773 38.844 53.6909 37.8054 54.343C36.7681 54.9965 36.0382 55.2835 35.6213 55.2071C35.2751 55.1422 35.1698 54.7368 35.3083 53.9895C35.653 52.1286 37.2024 49.4469 39.9533 45.9458C42.2917 42.9077 43.4963 41.1969 43.567 40.8131C43.6276 40.4842 43.5424 40.2967 43.3131 40.2534C42.9092 40.1799 41.6887 41.0872 39.6533 42.9755C37.6164 44.8653 35.0313 47.5889 31.8966 51.1448C28.3594 55.0946 25.9099 57.9335 24.5453 59.6588C26.4221 60.2402 27.9454 60.823 29.1124 61.4087C30.2795 61.9929 31.9615 62.9032 34.1585 64.1366C36.3541 65.37 37.9943 66.159 39.0806 66.5038C37.3798 68.1137 36.2113 69.2072 35.5751 69.7813C34.939 70.3555 34.4701 70.6873 34.1715 70.7753C33.6969 70.921 33.0521 70.8157 32.2385 70.4579C31.4234 70.1001 30.1468 69.464 28.4056 68.5479C26.6659 67.6333 25.0271 66.8342 23.4893 66.1547C21.9501 65.4738 20.5191 65.0108 19.1919 64.7655C18.4403 64.6256 17.7768 64.6112 17.1968 64.7194C16.6169 64.829 15.8033 65.0324 14.7546 65.3339C13.7073 65.6339 12.9889 65.7479 12.5994 65.6758C12.0368 65.5719 11.806 65.2416 11.9098 64.6847C11.9675 64.3717 12.1277 64.0341 12.3888 63.6677C13.035 62.8339 13.6597 62.042 14.2612 61.2889C14.8628 60.5374 15.46 59.9733 16.0514 59.5982C16.6443 59.2217 17.4406 58.9909 18.4403 58.9058C19.4415 58.8221 20.7225 58.9159 22.2833 59.1857C24.3159 56.667 26.2446 54.3401 28.0695 52.2036C27.5227 52.4994 26.9515 52.7461 26.3514 52.9394C25.4195 53.2163 24.2726 53.4269 22.9108 53.5712C21.5491 53.714 20.095 53.7558 18.5471 53.6938C16.9992 53.6318 15.5393 53.4745 14.1689 53.2207C11.6444 52.7533 9.66664 52.0911 8.23706 51.2328C6.80603 50.3745 6.19871 49.3618 6.4151 48.1976C6.51175 47.6754 6.92144 46.9109 7.64561 45.9025C8.36977 44.8942 9.11991 44.2638 9.89745 44.0128C10.5726 43.831 11.203 43.7733 11.7887 43.8368C12.3729 43.9002 12.647 44.0358 12.608 44.2436C12.5979 44.2969 12.5662 44.3445 12.5143 44.3893C12.4609 44.4325 12.4017 44.4672 12.3383 44.4917C12.2734 44.5148 12.2099 44.5393 12.1464 44.5638C11.8319 44.6489 11.5766 44.7138 11.3819 44.76C11.1871 44.8047 11.0284 44.8552 10.9058 44.9144C10.7832 44.9721 10.7096 45.0716 10.6837 45.2101C10.6158 45.5751 12.0743 46.0338 15.0618 46.5863C17.6585 47.0681 19.8064 47.348 21.5072 47.4302C23.208 47.511 24.7487 47.3725 26.1278 47.0162C26.7538 46.8546 27.3641 46.6426 27.9598 46.3786C29.2379 45.8131 29.7111 43.8973 28.8398 42.7635C28.834 42.7548 28.8283 42.7476 28.8225 42.7404C28.2195 41.9629 27.504 41.295 26.6745 40.7367C25.845 40.1784 24.9579 39.7139 24.013 39.3403C21.1942 38.28 18.6856 36.6369 16.4871 34.4139C16.2967 34.2336 16.1192 33.896 15.9577 33.3983C15.7961 32.9007 15.7543 32.4434 15.8322 32.025C16.1149 30.4959 16.6126 29 17.3223 27.5401C18.0335 26.0788 18.801 24.9766 19.6247 24.2294C20.9605 22.983 23.1157 22.0785 26.0932 21.5145C29.0692 20.9504 32.2962 20.9894 35.7728 21.6328C37.8501 22.0179 39.4196 22.507 40.4813 23.0984C41.543 23.6913 42.0003 24.3866 41.8518 25.1873C41.6108 26.4913 41.2762 27.4723 40.8477 28.1301C40.4207 28.7893 40.0154 29.2048 39.6331 29.3765C39.2508 29.5481 38.5959 29.7559 37.6712 29.9982C36.6917 30.2117 35.8276 30.4656 35.0803 30.7599C34.3316 31.0527 33.6839 31.347 33.1372 31.6413C32.5905 31.9356 32.2587 32.0712 32.1433 32.051C31.999 32.0236 31.9399 31.9413 31.9658 31.8014C32.0207 31.5057 32.3597 31.1061 32.9828 30.5998C33.606 30.0949 34.3345 29.6866 35.1683 29.3721C36.0555 29.0158 36.5114 28.7677 36.5373 28.6278C36.5792 28.4027 36.1594 28.2065 35.2794 28.045C32.6107 27.5502 30.0905 27.38 27.7204 27.5357C25.3488 27.6901 23.423 28.1157 21.9443 28.8139C20.4643 29.5106 19.6348 30.3459 19.4545 31.3196C19.3419 31.9284 19.5324 32.4102 20.0272 32.7622C20.5205 33.1142 21.6371 33.7575 23.3739 34.6894C25.1108 35.6228 26.637 36.6066 27.9526 37.6424C29.8453 39.108 31.1883 40.516 31.9832 41.8677C32.7766 43.2208 33.0406 44.6186 32.7722 46.0612C32.7015 46.4492 32.5977 46.8315 32.465 47.208C34.5394 44.9288 36.4277 42.9741 38.1299 41.3454C40.2245 39.3417 42.0104 37.8588 43.4862 36.8995C44.9619 35.9416 46.0669 35.5305 46.8026 35.6661C47.322 35.7627 47.6941 36.0108 47.9177 36.4119C48.1428 36.8129 48.1962 37.3265 48.0808 37.9525C47.6941 40.0399 45.3716 44.0791 41.1146 50.073Z" fill="#FA2935"/>
<path d="M92.5511 11.9301L92.5483 16.4857L92.5266 17.0295C92.5252 17.0771 92.5786 17.2012 92.6175 17.2026L92.8397 17.2084L93.2234 17.2676C93.3128 17.2805 93.3979 17.5849 93.3172 17.6513L92.5007 18.3351L92.5338 19.9536C92.541 20.2897 92.5064 20.8206 92.6348 21.0932C92.844 21.5433 92.8829 21.9573 92.8382 22.4089L94.0803 24.59C94.8549 26.3601 95.5026 28.1243 95.9888 29.9665L97.3765 30.9979C97.8555 31.3528 98.2377 31.9457 98.7902 32.2082C99.8029 32.6886 100.873 33.0103 101.564 33.9292C102.219 34.8683 101.965 35.7988 101.999 36.6917C102.384 37.8775 102.678 39.0604 102.746 40.3328C102.796 41.2849 102.512 42.2153 102.389 43.1674L102.046 45.8217C101.883 47.0825 101.521 48.3275 100.706 49.3301C100.174 49.985 99.7409 50.6413 99.2937 51.3583L97.7444 53.8496L96.2831 56.4607C95.5531 57.7676 94.653 58.9592 93.6763 60.093L92.3809 61.4015L92.3492 65.6917L92.3146 70.5993L92.303 77.7443C105.237 74.7409 115 61.136 115 44.8076C115 28.4792 105.363 15.0503 92.5511 11.9301ZM95.1319 43.2294L95.406 42.4548C95.1478 42.0956 95.0771 41.8128 95.1896 41.4594L94.161 39.4052C93.7167 38.3377 93.3878 37.3192 92.6492 36.3643C92.5281 36.5431 92.4646 36.7465 92.4646 36.9543L92.4574 45.363C93.0301 44.8033 93.659 44.2941 94.4063 44.1094C94.8766 43.9926 95.1535 43.844 95.1319 43.2294ZM58.8225 44.8076C58.8225 63.3388 71.3988 78.3617 86.9121 78.3617C88.121 78.3617 89.3126 78.2708 90.4825 78.0934L90.5344 63.2451C90.0137 63.6822 89.6458 63.9389 89.102 64.0846L88.4745 64.8535C88.0575 65.3642 87.417 65.6123 86.7982 65.5863C86.2082 65.5618 85.6946 65.2185 85.2518 64.7785L83.75 63.2912C82.6234 61.7462 81.4823 60.2373 79.9979 59.0328L78.3361 57.684L77.2008 56.8516C77.0652 57.0045 76.9411 57.1401 76.8603 57.0997L76.543 56.9425L76.3785 56.8603C76.3439 56.8444 76.3324 56.993 76.3453 57.0305L76.4233 57.2671C76.4406 57.3161 76.2314 57.3579 76.1996 57.3175L76.0857 57.1762C75.9241 56.9771 75.7106 56.4607 75.4279 56.3885L74.0719 56.0409C74.0142 56.0265 73.8988 55.9731 73.8598 55.9514C73.8209 55.9298 73.9593 55.8331 74.0026 55.8346L74.1426 55.8389L74.8855 55.875C75.0557 55.8779 75.0341 55.8187 74.8696 55.7841C74.4224 55.4336 74.0329 55.1898 73.5569 54.9561L72.1432 54.2636L69.4037 52.6984C68.9998 52.4676 68.6045 52.3955 68.1169 52.5484C66.9586 52.9134 66.6441 52.0478 66.0988 51.1376C65.9084 50.8188 65.6026 50.3918 65.5896 50.0196C65.8867 48.9449 66.6989 48.1933 67.6871 47.775C68.0044 47.9409 68.2338 48.1082 68.4819 48.3231C69.3691 49.092 71.0612 50.311 72.0119 49.884C71.9628 48.9175 71.093 49.1093 70.9444 48.6232C70.7987 48.1486 70.6126 47.7533 70.2866 47.3985L69.4585 46.4954C69.3994 46.4305 69.359 46.2386 69.3662 46.1622C69.3734 46.0872 69.6547 46.1016 69.7095 46.1535L70.4063 46.8243L70.6083 46.1276C71.2113 45.2707 72.1143 44.7788 73.1602 44.685C73.3275 44.8191 73.5064 45.037 73.629 45.2058L75.0009 47.1056L75.6818 47.6379C76.0179 47.9019 76.3958 47.9683 76.7983 47.7923C76.6685 47.1777 76.53 46.6252 76.2934 46.0771L75.4928 44.2248C75.4567 44.1411 75.4192 43.8901 75.4928 43.8425C75.5664 43.7935 75.7467 43.7661 75.8087 43.7791C76.3699 44.9721 76.9512 46.0078 77.674 47.0667L78.6607 48.1919C79.5522 48.9867 79.9128 50.1134 79.3127 51.24C79.5002 51.5401 79.7152 51.8502 79.9619 52.0882L81.1347 53.225C81.1736 53.5351 81.3381 53.8063 81.6237 53.9564L83.4644 55.3816L85.0065 56.3034L85.9918 56.9987L86.6135 57.4488L87.0362 55.9211C87.2901 55.0008 87.4704 53.9867 87.9825 53.1716C88.4326 52.4547 88.711 51.794 88.8452 50.9299C88.9721 50.1076 89.3559 49.2824 89.8608 48.6131L90.6152 47.612L90.6195 39.6144C90.0151 40.8939 90.2805 43.0506 89.4424 44.0517C89.1741 44.372 88.8755 44.5898 88.7947 45.0038C88.6519 45.7482 88.3316 46.3959 87.7373 46.9267C87.7863 46.517 88.0114 46.2675 88.1455 45.94L88.6245 44.7672L87.9998 45.05L88.8524 43.9926L89.0991 42.5053C89.1452 42.2297 89.1698 41.8821 89.3342 41.6902C89.7973 41.1507 89.8016 40.6112 89.8463 39.9274C89.881 39.3908 90.2906 38.8123 90.3166 38.2569L90.4032 36.3152L90.0166 37.6135L89.4078 39.5408L88.7947 42.224L88.4932 43.3073C88.3764 43.7286 87.8253 44.0546 87.6334 44.4369L87.0925 45.5145L87.2338 44.5898C87.3117 44.0777 87.6522 43.7401 87.9248 43.3391C88.4644 42.5457 88.5192 41.5157 88.6173 40.578L88.7096 39.7096L89.3342 38.2439C88.7125 37.9367 88.5451 37.4462 88.2278 36.784L88.1282 37.6092C87.8094 37.113 87.8282 36.6008 88.0532 36.0628L88.2249 35.6516C87.0377 35.5954 85.9629 35.3646 85.435 34.4312C85.3181 34.9303 85.3571 35.2621 85.396 35.7627C85.0325 35.3299 85.044 34.8207 84.9373 34.2826C84.8161 34.9275 84.5391 35.3472 84.2218 35.8565L83.7674 36.5879L83.7255 36.4523L84.3227 34.7904L83.8409 35.317C83.9462 34.6231 84.04 34.0388 84.0054 33.3349C83.864 33.381 83.7847 33.42 83.7616 33.4892L83.6577 33.7994L83.5856 33.3219C83.463 33.1142 83.2754 32.7636 83.3908 32.4765L83.9434 31.0874C84.141 30.5897 84.0876 29.7357 85.1464 29.2149C86.4347 28.5787 86.853 27.755 87.2699 27.6526L87.7835 27.5271L88.31 26.3572C88.3071 24.8987 88.4658 23.4446 89.0702 22.0929L89.5708 21.1957C89.4439 20.7427 89.2953 20.2248 89.415 19.7949L89.992 17.7205C90.1565 17.1305 90.7754 16.7771 90.7782 16.3977L90.8085 11.5766C89.5347 11.3646 88.2335 11.2549 86.9107 11.2549C71.3973 11.2549 58.821 26.2764 58.821 44.8076H58.8225ZM89.7381 37.0033L89.9084 35.9329L89.7843 35.7194C89.7078 35.5882 89.5117 36.3888 89.7381 37.0033Z" fill="#FA2935"/>
</g>
<defs>
<clipPath id="clip0_149_521">
<rect width="115" height="89.6166" fill="white"/>
</clipPath>
</defs>
</svg>
