<svg width="1003" height="93" viewBox="0 0 1003 93" fill="none" xmlns="http://www.w3.org/2000/svg">
<path d="M122.708 69.2055C115.964 70.8591 107.873 71.686 98.4594 71.686C88.4754 71.686 79.9047 71.0555 72.7391 69.7946C65.5735 68.5337 61.9865 65.6295 61.9865 61.0716H0C0 73.412 10.2567 81.7423 30.7866 86.0624C51.3083 90.3826 73.8714 92.5427 98.4676 92.5427C123.064 92.5427 144.924 90.3826 164.463 86.0624C184.001 81.7423 193.77 73.412 193.77 61.0716C193.77 51.6457 187.406 45.3205 174.686 42.0959C161.967 38.8712 145.412 37.2589 125.031 37.2589C121.237 37.2589 115.964 37.3416 109.22 37.4966L96.9882 37.6103C87.9878 37.538 79.913 36.9075 72.7391 35.7293C65.5735 34.5511 61.9865 32.391 61.9865 29.249C61.9865 26.4998 65.5321 24.4948 72.6316 23.2339C79.7312 21.9729 88.3432 21.3425 98.4594 21.3425C108.014 21.4975 116.138 22.407 122.816 24.0504C129.494 25.704 132.833 28.1742 132.833 31.4815H193.77C193.77 19.0687 184.001 10.7178 164.463 6.42859C144.924 2.14975 122.923 0 98.4676 0C82.723 0 67.8215 0.609785 53.7712 1.82936C39.7127 3.04893 27.241 5.83947 16.3479 10.201C5.45481 14.5625 0.00827294 21.0324 0.00827294 29.5901C0.00827294 36.6595 3.76878 42.0235 11.2898 45.6822C18.8108 49.3409 28.0179 51.7387 38.911 52.8756C49.8041 54.0125 62.2758 54.581 76.3343 54.581L97.418 54.4673C106.832 54.4673 115.097 54.922 122.196 55.8212C129.296 56.7204 132.841 58.6324 132.841 61.5366C132.841 64.999 129.469 67.5518 122.717 69.1951L122.708 69.2055Z" fill="#FA2935"/>
<path d="M205.887 69.8562C215.375 76.8119 228.161 82.2793 244.261 86.2378C260.352 90.2065 277.89 92.1909 296.866 92.1909C315.843 92.1909 334.538 90.2065 350.423 86.2378C366.308 82.269 378.746 76.8326 387.747 69.9079C396.739 62.9936 401.243 55.211 401.243 46.5707C401.243 37.9304 396.739 30.0135 387.747 23.0578C378.746 16.1021 366.308 10.645 350.423 6.67627C334.538 2.7075 316.686 0.723109 296.866 0.723109C277.047 0.723109 260.352 2.7075 244.261 6.67627C228.161 10.645 215.375 16.1228 205.887 23.1198C196.399 30.1168 191.655 37.9304 191.655 46.581C191.655 55.2317 196.399 62.9109 205.887 69.8666V69.8562ZM262.394 35.5532C266.402 32.4526 271.526 30.0755 277.783 28.4218C284.039 26.7682 290.469 25.9414 297.073 25.9414C303.677 25.9414 310.322 26.7682 316.578 28.4218C322.835 30.0755 327.926 32.4526 331.868 35.5532C335.802 38.6642 337.769 42.3332 337.769 46.5707C337.769 50.8082 335.802 54.3946 331.868 57.5365C327.934 60.6784 322.835 63.0762 316.578 64.7299C310.322 66.3836 303.825 67.2104 297.073 67.2104C290.321 67.2104 284.031 66.3836 277.783 64.7299C271.526 63.0762 266.394 60.6784 262.394 57.5365C258.385 54.3946 256.385 50.7358 256.385 46.5707C256.385 42.4056 258.385 38.6538 262.394 35.5532Z" fill="#FA2935"/>
<path d="M463.435 59.3029H556.423V36.3171H463.435V26.1781H574.135V2.60319H403.342V89.8335H463.435V59.3029Z" fill="#FA2935"/>
<path d="M637.386 4.05014L709.076 53.2877V89.8335H773.384V53.2877L847.603 2.60319H787.509L740.069 33.2475L695.372 2.60319H637.386H635.279H577.292V89.8335H637.386V4.05014Z" fill="#FA2935"/>
<path d="M833.901 89.8335L846.761 76.6353H930.046L942.906 89.8335H1003L918.45 2.60319H858.357L773.807 89.8335H833.901ZM888.507 33.6092L909.384 55.1791H867.423L888.507 33.6092Z" fill="#FA2935"/>
</svg>
