<svg width="1394" height="358" viewBox="0 0 1394 358" fill="none" xmlns="http://www.w3.org/2000/svg">
<path d="M1394 347.417H1346.4V10.0309H1394V347.417Z" fill="#FA2935"/>
<path d="M1266.21 10.0309V249.393H1340.53V347.417H1218.61V10.0309H1266.21Z" fill="#FA2935"/>
<path d="M1210.18 347.417H1162.58V10.0309H1210.18V347.417Z" fill="#FA2935"/>
<path d="M1043.41 347.417L1113.39 10.0309L1043.41 347.417ZM1068.13 228.42L1113.39 10.0309H1160.99L1094.35 347.417H1040.07L975.107 10.0309H1026.05L1068.13 228.42Z" fill="#FA2935"/>
<path d="M867.346 127.204H925.8V10.0309H973.398V347.417H925.8V227.052H867.346V347.417H819.747V10.0309H867.346V127.204Z" fill="#FA2935"/>
<path d="M747.729 144.985C753.073 144.377 757.249 144.073 760.255 144.073C776.399 144.073 789.482 150.304 799.503 162.766C809.635 175.228 814.701 199.696 814.701 236.17C814.701 283.891 806.962 316.11 791.486 332.827C776.01 349.544 758.585 357.903 739.211 357.903C719.727 357.903 701.856 349.544 685.601 332.827C669.345 316.11 661.217 283.891 661.217 236.17H710.318C710.318 253.799 713.157 265.046 718.836 269.909C724.514 274.772 731.306 277.204 739.211 277.204C746.671 277.204 753.073 274.012 758.418 267.629C763.762 261.246 766.434 251.368 766.434 237.994C766.434 226.748 763.595 219.453 757.917 216.109C752.35 212.462 745.836 210.638 738.376 210.638L721.675 211.094C710.541 211.094 700.632 208.967 691.947 204.711C683.374 200.152 676.081 190.882 670.069 176.9C664.167 162.614 661.217 141.793 661.217 114.438C661.217 81.307 665.504 56.383 674.077 39.6657C682.761 22.6444 692.671 11.8541 703.805 7.29483C714.939 2.43161 726.741 0 739.211 0C758.585 0 776.01 8.35867 791.486 25.076C806.962 41.4894 814.701 73.7082 814.701 121.733H766.434C766.434 108.967 763.762 99.3921 758.418 93.0091C753.185 86.6262 746.783 83.1307 739.211 82.5228C731.195 82.5228 724.347 84.9544 718.669 89.8177C713.102 94.6809 710.318 102.432 710.318 113.07C710.318 125.228 713.157 133.587 718.836 138.146C724.514 142.705 730.916 145.137 738.042 145.441L747.729 144.985Z" fill="#FA2935"/>
<path d="M672.895 347.417H625.296L615.109 296.353H549.139L538.951 347.417H491.353L558.325 10.0309H605.923L672.895 347.417ZM582.207 129.94L565.506 213.374H598.742L582.207 129.94Z" fill="#FA2935"/>
<path d="M492.945 347.417H445.347V10.0309H492.945V347.417Z" fill="#FA2935"/>
<path d="M386.013 347.417L351.776 238.45H335.575V347.417H290.482V10.0309H386.681C397.036 10.0309 406.166 14.7421 414.071 24.1646C422.087 33.5871 428.267 46.809 432.609 63.8303C437.063 80.5476 439.29 100.001 439.29 122.189V124.013C439.29 152.888 436.172 176.748 429.937 195.593C423.813 214.438 415.296 227.052 404.384 233.435L440.292 347.417H386.013ZM395.366 124.013C395.366 114.894 394.586 108.359 393.027 104.408C391.58 100.152 389.576 97.5689 387.015 96.6571C384.565 95.7452 380.78 95.2893 375.658 95.2893H370.314C366.862 95.5932 355.283 95.7452 335.575 95.7452V151.368H375.491H375.658C380.78 151.368 384.565 150.912 387.015 150.001C389.576 149.089 391.58 146.809 393.027 143.162C394.586 139.21 395.366 132.827 395.366 124.013Z" fill="#FA2935"/>
<path d="M202.733 2.73499C218.432 2.73499 232.573 10.4858 245.154 25.9873C257.736 41.1849 267.589 62.3095 274.715 89.3612C281.841 116.109 285.404 146.352 285.404 180.091C285.404 213.525 281.841 243.617 274.715 270.364C267.589 297.112 257.736 318.237 245.154 333.738C232.573 348.936 218.432 356.535 202.733 356.535C187.702 356.535 173.784 348.936 160.98 333.738C148.287 318.237 138.155 297.112 130.584 270.364C123.124 243.313 119.394 213.221 119.394 180.091C119.394 146.656 123.124 116.413 130.584 89.3612C138.155 62.3095 148.287 41.1849 160.98 25.9873C173.784 10.4858 187.702 2.73499 202.733 2.73499ZM202.9 259.878C208.244 259.878 213.366 256.686 218.265 250.304C223.276 243.921 227.339 234.65 230.457 222.492C233.575 210.334 235.133 196.2 235.133 180.091C235.133 163.677 233.575 149.544 230.457 137.689C227.339 125.531 223.276 116.261 218.265 109.878C213.366 103.495 208.244 100.303 202.9 100.303C197.667 100.303 192.545 103.495 187.535 109.878C182.636 116.261 178.572 125.531 175.343 137.689C172.226 149.544 170.667 163.677 170.667 180.091C170.667 196.2 172.226 210.334 175.343 222.492C178.572 234.65 182.636 243.921 187.535 250.304C192.545 256.686 197.667 259.878 202.9 259.878Z" fill="#FA2935"/>
<path d="M47.5983 10.0309V249.393H121.918V347.417H0V10.0309H47.5983Z" fill="#FA2935"/>
</svg>
